{
  "asset": {
    "version": "2.0",
    "generator": "THREE.GLTFExporter"
  },
  "scenes": [
    {
      "nodes": [
        0
      ]
    }
  ],
  "scene": 0,
  "nodes": [
    {
      "children": [
        1,
        2,
        3,
        4,
        5,
        6
      ],
      "matrix": [
        0.01,
        0,
        0,
        0,
        0,
        0.01,
        0,
        0,
        0,
        0,
        0.01,
        0,
        0,
        0,
        0,
        1
      ]
    },
    {
      "matrix": [
        0.9645715584235774,
        0.004014029428896065,
        0.2637908191125213,
        0,
        -0.004161427565695402,
        0.9999913412228205,
        0,
        0,
        -0.2637885350065966,
        -0.0010977463862322154,
        0.9645799105060944,
        0,
        0,
        0,
        0,
        1
      ],
      "name": "Directional Light",
      "extensions": {
        "KHR_lights_punctual": {
          "light": 0
        }
      }
    },
    {
      "matrix": [
        1,
        0,
        0,
        0,
        0,
        1,
        0,
        0,
        0,
        0,
        0.3704247438923029,
        0,
        -5.663271483914528,
        -107.15277672117301,
        -22.955937965142773,
        1
      ],
      "name": "icon-bg",
      "mesh": 0
    },
    {
      "matrix": [
        1,
        0,
        0,
        0,
        0,
        1,
        0,
        0,
        0,
        0,
        1,
        0,
        -4.465456542508283,
        -105.02177100693665,
        -10.26939396901131,
        1
      ],
      "name": "Text",
      "mesh": 1
    },
    {
      "matrix": [
        1,
        0,
        0,
        0,
        0,
        1,
        0,
        0,
        0,
        0,
        1.0029951799348384,
        0,
        -9.302504909708318,
        -150.31277656858512,
        -38.54612406766327,
        1
      ],
      "name": "icon-bg 2",
      "mesh": 2
    },
    {
      "matrix": [
        0.9999997590321122,
        0,
        0.0006942159011705639,
        0,
        0.000020348024969023975,
        0.9995703461357333,
        -0.029310795145275733,
        0,
        -0.0006939176286259905,
        0.02931080220823783,
        0.9995701052713782,
        0,
        -2.2827749024588613,
        -105.74206606755652,
        999.5701052713782,
        1
      ],
      "camera": 0
    },
    {
      "matrix": [
        1,
        0,
        0,
        0,
        0,
        1,
        0,
        0,
        0,
        0,
        1,
        0,
        0,
        1,
        0,
        1
      ],
      "name": "Default Ambient Light"
    }
  ],
  "extensions": {
    "KHR_lights_punctual": {
      "lights": [
        {
          "name": "Directional Light",
          "color": [
            1,
            1,
            1
          ],
          "intensity": 0.7,
          "type": "directional"
        }
      ]
    }
  },
  "bufferViews": [
    {
      "buffer": 0,
      "byteOffset": 0,
      "byteLength": 11808,
      "target": 34962,
      "byteStride": 12
    },
    {
      "buffer": 0,
      "byteOffset": 11808,
      "byteLength": 11808,
      "target": 34962,
      "byteStride": 12
    },
    {
      "buffer": 0,
      "byteOffset": 23616,
      "byteLength": 7872,
      "target": 34962,
      "byteStride": 8
    },
    {
      "buffer": 0,
      "byteOffset": 31488,
      "byteLength": 15696,
      "target": 34963
    },
    {
      "buffer": 0,
      "byteOffset": 47184,
      "byteLength": 80784,
      "target": 34962,
      "byteStride": 12
    },
    {
      "buffer": 0,
      "byteOffset": 127968,
      "byteLength": 80784,
      "target": 34962,
      "byteStride": 12
    },
    {
      "buffer": 0,
      "byteOffset": 208752,
      "byteLength": 53856,
      "target": 34962,
      "byteStride": 8
    },
    {
      "buffer": 0,
      "byteOffset": 262608,
      "byteLength": 52824,
      "target": 34963
    },
    {
      "buffer": 0,
      "byteOffset": 315432,
      "byteLength": 47232,
      "target": 34962,
      "byteStride": 12
    },
    {
      "buffer": 0,
      "byteOffset": 362664,
      "byteLength": 47232,
      "target": 34962,
      "byteStride": 12
    },
    {
      "buffer": 0,
      "byteOffset": 409896,
      "byteLength": 31488,
      "target": 34962,
      "byteStride": 8
    },
    {
      "buffer": 0,
      "byteOffset": 441384,
      "byteLength": 86544,
      "target": 34963
    }
  ],
  "buffers": [
    {
      "byteLength": 527928,
      "uri": "data:application/octet-stream;base64,"
    }
  ],
  "accessors": [
    {
      "bufferView": 0,
      "componentType": 5126,
      "count": 984,
      "max": [
        110.52204132080078,
        43.15999984741211,
        25
      ],
      "min": [
        -110.52204132080078,
        -43.15999984741211,
        0
      ],
      "type": "VEC3"
    },
    {
      "bufferView": 1,
      "componentType": 5126,
      "count": 984,
      "max": [
        1,
        1,
        1
      ],
      "min": [
        -1,
        -1,
        -1
      ],
      "type": "VEC3"
    },
    {
      "bufferView": 2,
      "componentType": 5126,
      "count": 984,
      "max": [
        1,
        1
      ],
      "min": [
        0,
        0
      ],
      "type": "VEC2"
    },
    {
      "bufferView": 3,
      "componentType": 5125,
      "count": 3924,
      "max": [
        983
      ],
      "min": [
        0
      ],
      "type": "SCALAR"
    },
    {
      "bufferView": 4,
      "componentType": 5126,
      "count": 6732,
      "max": [
        90.14453125,
        16.443115234375,
        8
      ],
      "min": [
        -87.27587890625,
        -16.466066360473633,
        0
      ],
      "type": "VEC3"
    },
    {
      "bufferView": 5,
      "componentType": 5126,
      "count": 6732,
      "max": [
        1,
        1,
        1
      ],
      "min": [
        -1,
        -1,
        -1
      ],
      "type": "VEC3"
    },
    {
      "bufferView": 6,
      "componentType": 5126,
      "count": 6732,
      "max": [
        1,
        1
      ],
      "min": [
        0,
        0
      ],
      "type": "VEC2"
    },
    {
      "bufferView": 7,
      "componentType": 5123,
      "count": 26412,
      "max": [
        6731
      ],
      "min": [
        0
      ],
      "type": "SCALAR"
    },
    {
      "bufferView": 8,
      "componentType": 5126,
      "count": 3936,
      "max": [
        132.16000366210938,
        101.68722534179688,
        8
      ],
      "min": [
        -132.16000366210938,
        -101.68722534179688,
        0
      ],
      "type": "VEC3"
    },
    {
      "bufferView": 9,
      "componentType": 5126,
      "count": 3936,
      "max": [
        1,
        1,
        1
      ],
      "min": [
        -1,
        -1,
        -1
      ],
      "type": "VEC3"
    },
    {
      "bufferView": 10,
      "componentType": 5126,
      "count": 3936,
      "max": [
        1,
        1
      ],
      "min": [
        0,
        0
      ],
      "type": "VEC2"
    },
    {
      "bufferView": 11,
      "componentType": 5125,
      "count": 21636,
      "max": [
        3935
      ],
      "min": [
        0
      ],
      "type": "SCALAR"
    }
  ],
  "meshes": [
    {
      "primitives": [
        {
          "mode": 4,
          "attributes": {
            "POSITION": 0,
            "NORMAL": 1,
            "TEXCOORD_0": 2
          },
          "extras": {
            "shape": {
              "points": [
                -110.52204211109651,
                43.16000000000001,
                -110.52204211109651,
                43.16000000000001,
                -110.52204211109651,
                43.16000000000001,
                43.16000000000001,
                110.52204211109651,
                43.16000000000001,
                110.52204211109651,
                43.16000000000001,
                110.52204211109651,
                43.16000000000001,
                43.16000000000001,
                110.52204211109651,
                -43.16000000000001,
                110.52204211109651,
                -43.16000000000001,
                110.52204211109651,
                -43.16000000000001,
                43.16000000000001,
                -110.52204211109651,
                -43.16000000000001,
                -110.52204211109651,
                -43.16000000000001,
                -110.52204211109651,
                -43.16000000000001,
                43.16000000000001
              ],
              "shapeHoles": [],
              "isClosed": true,
              "roundness": 43.16000000000001
            },
            "parameters": {
              "width": 221.04408422219302,
              "depth": 25,
              "cornerRadius": [
                64,
                64,
                64,
                64
              ],
              "cornerType": 1,
              "extrudeBevelSize": 4,
              "extrudeBevelSegments": 1,
              "height": 86.32000000000002,
              "type": "RectangleGeometry"
            },
            "ui": {
              "enabledIndieCorners": false
            },
            "type": "RectangleGeometry"
          },
          "indices": 3
        }
      ]
    },
    {
      "primitives": [
        {
          "mode": 4,
          "attributes": {
            "POSITION": 4,
            "NORMAL": 5,
            "TEXCOORD_0": 6
          },
          "extras": {
            "parameters": {
              "type": "TextGeometry",
              "width": 232.15,
              "height": 47.01,
              "depth": 8,
              "horizontalAlign": 3,
              "verticalAlign": 2,
              "fontSize": 47,
              "lineHeight": 1.2,
              "letterSpacing": 0,
              "text": "About",
              "textTransform": 1,
              "font": "48df70c0-1455-45d9-afac-cc2e2b373d62",
              "extrudeBevelSize": 1,
              "extrudeBevelSegments": 1
            },
            "type": "TextGeometry"
          },
          "indices": 7
        }
      ]
    },
    {
      "primitives": [
        {
          "mode": 4,
          "attributes": {
            "POSITION": 8,
            "NORMAL": 9,
            "TEXCOORD_0": 10
          },
          "extras": {
            "shape": {
              "points": [
                -132.16,
                101.68722343141489,
                -132.16,
                101.68722343141489,
                -132.16,
                101.68722343141489,
                24,
                132.16,
                101.68722343141489,
                132.16,
                101.68722343141489,
                132.16,
                101.68722343141489,
                24,
                132.16,
                -101.68722343141489,
                132.16,
                -101.68722343141489,
                132.16,
                -101.68722343141489,
                24,
                -132.16,
                -101.68722343141489,
                -132.16,
                -101.68722343141489,
                -132.16,
                -101.68722343141489,
                24
              ],
              "shapeHoles": [],
              "isClosed": true,
              "roundness": 24
            },
            "parameters": {
              "width": 264.32,
              "depth": 8,
              "cornerRadius": [
                24,
                24,
                24,
                24
              ],
              "cornerType": 1,
              "extrudeBevelSize": 5,
              "extrudeBevelSegments": 10,
              "height": 203.37444686282979,
              "type": "RectangleGeometry"
            },
            "ui": {
              "enabledIndieCorners": false
            },
            "type": "RectangleGeometry"
          },
          "indices": 11
        }
      ]
    }
  ],
  "cameras": [
    {
      "type": "orthographic",
      "orthographic": {
        "xmag": 2.4197799762576593,
        "ymag": 1.2331915730853849,
        "zfar": 100000,
        "znear": 0
      }
    }
  ],
  "extensionsUsed": [
    "KHR_lights_punctual"
  ]
}