{
	"nodes":[{
		"name":"Domestika",
		"translation":[0.0,
		0.0,
		22.12696647644043],
		"rotation":[0.0,
		0.0,
		0.0,
		-1.0],
		"scale":[1.0,
		1.0,
		1.0],
		"children":[1,
		2]
	},
	{
		"name":"Cubo",
		"translation":[0.0,
		0.0,
		-22.12696647644043],
		"rotation":[0.0,
		0.0,
		0.0,
		-1.0],
		"scale":[1.0,
		1.0,
		1.0],
		"mesh":0
	},
	{
		"name":"Extrusión.1",
		"translation":[0.0,
		0.0,
		21.809789657592775],
		"rotation":[0.0,
		0.0,
		0.0,
		-1.0],
		"scale":[1.0,
		1.0,
		1.0],
		"mesh":1
	},
	{
		"name":"Git-hub",
		"translation":[0.0,
		0.0,
		-17.07338523864746],
		"rotation":[0.0,
		0.0,
		0.0,
		-1.0],
		"scale":[1.0,
		1.0,
		1.0],
		"children":[4,
		5]
	},
	{
		"name":"Forro",
		"translation":[0.0,
		0.0,
		-17.07338523864746],
		"rotation":[0.0,
		0.0,
		0.0,
		-1.0],
		"scale":[1.0,
		1.0,
		1.0],
		"mesh":2
	},
	{
		"name":"Cubo",
		"translation":[0.0,
		0.0,
		17.07338523864746],
		"rotation":[0.0,
		0.0,
		0.0,
		-1.0],
		"scale":[1.0,
		1.0,
		1.0],
		"mesh":3
	},
	{
		"name":"Linkedin",
		"translation":[-2.832549810409546,
		0.0,
		22.62623405456543],
		"rotation":[0.0,
		0.0,
		0.0,
		-1.0],
		"scale":[1.0,
		1.0,
		1.0],
		"children":[7,
		11]
	},
	{
		"name":"Nulo ",
		"translation":[-2.832549810409546,
		0.0,
		22.62623405456543],
		"rotation":[0.0,
		0.0,
		0.0,
		-1.0],
		"scale":[1.0,
		1.0,
		1.0],
		"children":[8,
		9,
		10]
	},
	{
		"name":"Extrusión.2",
		"mesh":4
	},
	{
		"name":"Extrusión.1",
		"mesh":5
	},
	{
		"name":"Extrusión",
		"mesh":6
	},
	{
		"name":"Cubo",
		"translation":[2.832549810409546,
		0.0,
		-22.62623405456543],
		"rotation":[0.0,
		0.0,
		0.0,
		-1.0],
		"scale":[1.0,
		1.0,
		1.0],
		"mesh":7
	}],
	"asset":{
		"version":"2.0",
		"generator":"Created using the official Cinema 4D glTF Exporter 1.000x284978"
	},
	"scenes":[{
		"nodes":[0,
		3,
		6]
	}],
	"meshes":[{
		"name":"Cubo",
		"primitives":[{
			"attributes":{
				"POSITION":1,
				"NORMAL":2,
				"TEXCOORD_0":3
			},
			"indices":0
		}]
	},
	{
		"name":"Extrusión.1",
		"primitives":[{
			"attributes":{
				"POSITION":5,
				"NORMAL":6,
				"TEXCOORD_0":7
			},
			"indices":4
		}]
	},
	{
		"name":"Forro",
		"primitives":[{
			"attributes":{
				"POSITION":9,
				"NORMAL":10,
				"TEXCOORD_0":11
			},
			"indices":8
		}]
	},
	{
		"name":"Cubo",
		"primitives":[{
			"attributes":{
				"POSITION":13,
				"NORMAL":14,
				"TEXCOORD_0":15
			},
			"indices":12
		}]
	},
	{
		"name":"Extrusión.2",
		"primitives":[{
			"attributes":{
				"POSITION":17,
				"NORMAL":18,
				"TEXCOORD_0":19
			},
			"indices":16
		}]
	},
	{
		"name":"Extrusión.1",
		"primitives":[{
			"attributes":{
				"POSITION":21,
				"NORMAL":22,
				"TEXCOORD_0":23
			},
			"indices":20
		}]
	},
	{
		"name":"Extrusión",
		"primitives":[{
			"attributes":{
				"POSITION":25,
				"NORMAL":26,
				"TEXCOORD_0":27
			},
			"indices":24
		}]
	},
	{
		"name":"Cubo",
		"primitives":[{
			"attributes":{
				"POSITION":29,
				"NORMAL":30,
				"TEXCOORD_0":31
			},
			"indices":28
		}]
	}],
	"accessors":[{
		"bufferView":0,
		"type":"SCALAR",
		"count":5316,
		"componentType":5123,
		"byteOffset":0,
		"min":[0],
		"max":[1061]
	},
	{
		"bufferView":1,
		"type":"VEC3",
		"count":1062,
		"componentType":5126,
		"byteOffset":0,
		"min":[-41.0,
		-41.0,
		-41.0],
		"max":[41.0,
		41.0,
		41.0]
	},
	{
		"bufferView":1,
		"type":"VEC3",
		"count":1062,
		"componentType":5126,
		"byteOffset":12,
		"min":[-0.9984614253044128,
		-0.9982842206954956,
		-0.9984614253044128],
		"max":[0.9984614253044128,
		0.9982841610908508,
		0.9984614253044128]
	},
	{
		"bufferView":1,
		"type":"VEC2",
		"count":1062,
		"componentType":5126,
		"byteOffset":24,
		"min":[0.0,
		0.0],
		"max":[1.0,
		1.0]
	},
	{
		"bufferView":2,
		"type":"SCALAR",
		"count":2004,
		"componentType":5123,
		"byteOffset":0,
		"min":[0],
		"max":[587]
	},
	{
		"bufferView":3,
		"type":"VEC3",
		"count":588,
		"componentType":5126,
		"byteOffset":0,
		"min":[-31.316421508789064,
		-19.924968719482423,
		-22.563199996948243],
		"max":[31.44878387451172,
		19.812471389770509,
		2.0]
	},
	{
		"bufferView":3,
		"type":"VEC3",
		"count":588,
		"componentType":5126,
		"byteOffset":12,
		"min":[-0.86078941822052,
		-0.9999925494194031,
		-1.0],
		"max":[0.8567179441452026,
		0.7815641760826111,
		1.0]
	},
	{
		"bufferView":3,
		"type":"VEC2",
		"count":588,
		"componentType":5126,
		"byteOffset":24,
		"min":[0.0,
		0.0],
		"max":[1.0,
		1.0]
	},
	{
		"bufferView":4,
		"type":"SCALAR",
		"count":5514,
		"componentType":5123,
		"byteOffset":0,
		"min":[0],
		"max":[1857]
	},
	{
		"bufferView":5,
		"type":"VEC3",
		"count":1858,
		"componentType":5126,
		"byteOffset":0,
		"min":[-27.764965057373048,
		-27.084640502929689,
		53.46551513671875],
		"max":[28.330873489379884,
		28.08912467956543,
		79.34051513671875]
	},
	{
		"bufferView":5,
		"type":"VEC3",
		"count":1858,
		"componentType":5126,
		"byteOffset":12,
		"min":[-0.9999993443489075,
		-0.9999977350234985,
		-1.0],
		"max":[0.9999935030937195,
		0.9999983906745911,
		1.0]
	},
	{
		"bufferView":5,
		"type":"VEC2",
		"count":1858,
		"componentType":5126,
		"byteOffset":24,
		"min":[0.0,
		0.0],
		"max":[1.0,
		0.9835624694824219]
	},
	{
		"bufferView":6,
		"type":"SCALAR",
		"count":5316,
		"componentType":5123,
		"byteOffset":0,
		"min":[0],
		"max":[1061]
	},
	{
		"bufferView":7,
		"type":"VEC3",
		"count":1062,
		"componentType":5126,
		"byteOffset":0,
		"min":[-41.0,
		-41.0,
		-41.0],
		"max":[41.0,
		41.0,
		41.0]
	},
	{
		"bufferView":7,
		"type":"VEC3",
		"count":1062,
		"componentType":5126,
		"byteOffset":12,
		"min":[-0.9984614253044128,
		-0.9982842206954956,
		-0.9984614253044128],
		"max":[0.9984614253044128,
		0.9982841610908508,
		0.9984614253044128]
	},
	{
		"bufferView":7,
		"type":"VEC2",
		"count":1062,
		"componentType":5126,
		"byteOffset":24,
		"min":[0.0,
		0.0],
		"max":[1.0,
		1.0]
	},
	{
		"bufferView":8,
		"type":"SCALAR",
		"count":17376,
		"componentType":5123,
		"byteOffset":0,
		"min":[0],
		"max":[3489]
	},
	{
		"bufferView":9,
		"type":"VEC3",
		"count":3490,
		"componentType":5126,
		"byteOffset":0,
		"min":[-0.19904980063438416,
		-18.772624969482423,
		-21.814895629882814],
		"max":[33.157508850097659,
		16.982872009277345,
		1.7000000476837159]
	},
	{
		"bufferView":9,
		"type":"VEC3",
		"count":3490,
		"componentType":5126,
		"byteOffset":12,
		"min":[-1.0,
		-1.0,
		-1.0],
		"max":[1.0,
		1.0,
		1.0]
	},
	{
		"bufferView":9,
		"type":"VEC2",
		"count":3490,
		"componentType":5126,
		"byteOffset":24,
		"min":[0.0,
		0.0],
		"max":[1.0,
		1.0]
	},
	{
		"bufferView":10,
		"type":"SCALAR",
		"count":10284,
		"componentType":5123,
		"byteOffset":0,
		"min":[0],
		"max":[2034]
	},
	{
		"bufferView":11,
		"type":"VEC3",
		"count":2035,
		"componentType":5126,
		"byteOffset":0,
		"min":[-18.379798889160158,
		-18.552764892578126,
		-21.814895629882814],
		"max":[-8.080972671508789,
		16.205774307250978,
		1.7000000476837159]
	},
	{
		"bufferView":11,
		"type":"VEC3",
		"count":2035,
		"componentType":5126,
		"byteOffset":12,
		"min":[-1.0,
		-1.0,
		-1.0],
		"max":[1.0,
		1.0,
		1.0]
	},
	{
		"bufferView":11,
		"type":"VEC2",
		"count":2035,
		"componentType":5126,
		"byteOffset":24,
		"min":[0.0,
		0.0],
		"max":[1.0,
		1.0]
	},
	{
		"bufferView":12,
		"type":"SCALAR",
		"count":9060,
		"componentType":5123,
		"byteOffset":0,
		"min":[0],
		"max":[1657]
	},
	{
		"bufferView":13,
		"type":"VEC3",
		"count":1658,
		"componentType":5126,
		"byteOffset":0,
		"min":[-19.00031852722168,
		21.485260009765626,
		-37.81489562988281],
		"max":[-7.207736492156982,
		33.2778434753418,
		1.7000000476837159]
	},
	{
		"bufferView":13,
		"type":"VEC3",
		"count":1658,
		"componentType":5126,
		"byteOffset":12,
		"min":[-0.9995882511138916,
		-0.9995882511138916,
		-1.0],
		"max":[0.999588131904602,
		0.9995882511138916,
		1.0]
	},
	{
		"bufferView":13,
		"type":"VEC2",
		"count":1658,
		"componentType":5126,
		"byteOffset":24,
		"min":[0.0,
		0.0],
		"max":[1.0,
		1.0]
	},
	{
		"bufferView":14,
		"type":"SCALAR",
		"count":5316,
		"componentType":5123,
		"byteOffset":0,
		"min":[0],
		"max":[1061]
	},
	{
		"bufferView":15,
		"type":"VEC3",
		"count":1062,
		"componentType":5126,
		"byteOffset":0,
		"min":[-41.0,
		-41.0,
		-41.0],
		"max":[41.0,
		41.0,
		41.0]
	},
	{
		"bufferView":15,
		"type":"VEC3",
		"count":1062,
		"componentType":5126,
		"byteOffset":12,
		"min":[-0.9984614253044128,
		-0.9982842206954956,
		-0.9984614253044128],
		"max":[0.9984614253044128,
		0.9982841610908508,
		0.9984614253044128]
	},
	{
		"bufferView":15,
		"type":"VEC2",
		"count":1062,
		"componentType":5126,
		"byteOffset":24,
		"min":[0.0,
		0.0],
		"max":[1.0,
		1.0]
	}],
	"bufferViews":[{
		"buffer":0,
		"byteOffset":0,
		"byteLength":10632,
		"target":34963
	},
	{
		"buffer":0,
		"byteOffset":10632,
		"byteLength":33984,
		"target":34962,
		"byteStride":32
	},
	{
		"buffer":1,
		"byteOffset":0,
		"byteLength":4008,
		"target":34963
	},
	{
		"buffer":1,
		"byteOffset":4008,
		"byteLength":18816,
		"target":34962,
		"byteStride":32
	},
	{
		"buffer":2,
		"byteOffset":0,
		"byteLength":11028,
		"target":34963
	},
	{
		"buffer":2,
		"byteOffset":11028,
		"byteLength":59456,
		"target":34962,
		"byteStride":32
	},
	{
		"buffer":3,
		"byteOffset":0,
		"byteLength":10632,
		"target":34963
	},
	{
		"buffer":3,
		"byteOffset":10632,
		"byteLength":33984,
		"target":34962,
		"byteStride":32
	},
	{
		"buffer":4,
		"byteOffset":0,
		"byteLength":34752,
		"target":34963
	},
	{
		"buffer":4,
		"byteOffset":34752,
		"byteLength":111680,
		"target":34962,
		"byteStride":32
	},
	{
		"buffer":5,
		"byteOffset":0,
		"byteLength":20568,
		"target":34963
	},
	{
		"buffer":5,
		"byteOffset":20568,
		"byteLength":65120,
		"target":34962,
		"byteStride":32
	},
	{
		"buffer":6,
		"byteOffset":0,
		"byteLength":18120,
		"target":34963
	},
	{
		"buffer":6,
		"byteOffset":18120,
		"byteLength":53056,
		"target":34962,
		"byteStride":32
	},
	{
		"buffer":7,
		"byteOffset":0,
		"byteLength":10632,
		"target":34963
	},
	{
		"buffer":7,
		"byteOffset":10632,
		"byteLength":33984,
		"target":34962,
		"byteStride":32
	}],
	"buffers":[{
		"uri":"data:application/octet-stream;base64,",
		"byteLength":44616
	},
	{
		"uri":"data:application/octet-stream;base64,",
		"byteLength":22824
	},
	{
		"uri":"data:application/octet-stream;base64,",
		"byteLength":70484
	},
	{
		"uri":"data:application/octet-stream;base64,",
		"byteLength":44616
	},
	{
		"uri":"data:application/octet-stream;base64,",
		"byteLength":146432
	},
	{
		"uri":"data:application/octet-stream;base64,",
		"byteLength":85688
	},
	{
		"uri":"data:application/octet-stream;base64,",
		"byteLength":71176
	},
	{
		"uri":"data:application/octet-stream;base64,",
		"byteLength":44616
	}]
}