{
	"nodes":[{
		"name":"MoText",
		"translation":[0.0,
		0.0,
		0.0],
		"rotation":[0.0,
		0.0,
		0.0,
		-1.0],
		"scale":[1.0,
		1.0,
		1.0],
		"children":[1,
		7]
	},
	{
		"name":"1",
		"translation":[-272.998046875,
		0.0,
		0.0],
		"rotation":[0.0,
		0.0,
		0.0,
		-1.0],
		"scale":[1.0,
		1.0,
		1.0],
		"children":[2]
	},
	{
		"name":"Dani",
		"children":[3,
		4,
		5,
		6]
	},
	{
		"name":"D",
		"mesh":0
	},
	{
		"name":"a",
		"mesh":1,
		"translation":[190.625,
		0.0,
		0.0],
		"rotation":[0.0,
		0.0,
		0.0,
		-1.0],
		"scale":[1.0,
		1.0,
		1.0]
	},
	{
		"name":"n",
		"mesh":2,
		"translation":[345.21484375,
		0.0,
		0.0],
		"rotation":[0.0,
		0.0,
		0.0,
		-1.0],
		"scale":[1.0,
		1.0,
		1.0]
	},
	{
		"name":"i",
		"mesh":3,
		"translation":[495.01953125,
		0.0,
		0.0],
		"rotation":[0.0,
		0.0,
		0.0,
		-1.0],
		"scale":[1.0,
		1.0,
		1.0]
	},
	{
		"name":"2",
		"translation":[-378.7109375,
		-241.30859375,
		0.0],
		"rotation":[0.0,
		0.0,
		0.0,
		-1.0],
		"scale":[1.0,
		1.0,
		1.0],
		"children":[8]
	},
	{
		"name":"Pérez",
		"children":[9,
		10,
		11,
		12,
		13]
	},
	{
		"name":"P",
		"mesh":4
	},
	{
		"name":"é",
		"mesh":5,
		"translation":[182.6171875,
		0.0,
		0.0],
		"rotation":[0.0,
		0.0,
		0.0,
		-1.0],
		"scale":[1.0,
		1.0,
		1.0]
	},
	{
		"name":"r",
		"mesh":6,
		"translation":[319.62890625,
		0.0,
		0.0],
		"rotation":[0.0,
		0.0,
		0.0,
		-1.0],
		"scale":[1.0,
		1.0,
		1.0]
	},
	{
		"name":"e",
		"mesh":7,
		"translation":[469.23828125,
		0.0,
		0.0],
		"rotation":[0.0,
		0.0,
		0.0,
		-1.0],
		"scale":[1.0,
		1.0,
		1.0]
	},
	{
		"name":"z",
		"mesh":8,
		"translation":[606.25,
		0.0,
		0.0],
		"rotation":[0.0,
		0.0,
		0.0,
		-1.0],
		"scale":[1.0,
		1.0,
		1.0]
	}],
	"asset":{
		"version":"2.0",
		"generator":"Created using the official Cinema 4D glTF Exporter 1.000x284978"
	},
	"scenes":[{
		"nodes":[0]
	}],
	"materials":[{
		"name":"",
		"alphaMode":"OPAQUE",
		"pbrMetallicRoughness":{
			"baseColorFactor":[1.0,
			1.0,
			1.0,
			1.0],
			"metallicFactor":1.0,
			"roughnessFactor":1.0
		},
		"emissiveFactor":[0.0,
		0.0,
		0.0],
		"doubleSided":true
	},
	{
		"name":"",
		"alphaMode":"OPAQUE",
		"pbrMetallicRoughness":{
			"baseColorFactor":[1.0,
			1.0,
			1.0,
			1.0],
			"metallicFactor":1.0,
			"roughnessFactor":1.0
		},
		"emissiveFactor":[0.0,
		0.0,
		0.0],
		"doubleSided":true
	},
	{
		"name":"",
		"alphaMode":"OPAQUE",
		"pbrMetallicRoughness":{
			"baseColorFactor":[1.0,
			1.0,
			1.0,
			1.0],
			"metallicFactor":1.0,
			"roughnessFactor":1.0
		},
		"emissiveFactor":[0.0,
		0.0,
		0.0],
		"doubleSided":true
	},
	{
		"name":"",
		"alphaMode":"OPAQUE",
		"pbrMetallicRoughness":{
			"baseColorFactor":[1.0,
			1.0,
			1.0,
			1.0],
			"metallicFactor":1.0,
			"roughnessFactor":1.0
		},
		"emissiveFactor":[0.0,
		0.0,
		0.0],
		"doubleSided":true
	},
	{
		"name":"",
		"alphaMode":"OPAQUE",
		"pbrMetallicRoughness":{
			"baseColorFactor":[1.0,
			1.0,
			1.0,
			1.0],
			"metallicFactor":1.0,
			"roughnessFactor":1.0
		},
		"emissiveFactor":[0.0,
		0.0,
		0.0],
		"doubleSided":true
	},
	{
		"name":"",
		"alphaMode":"OPAQUE",
		"pbrMetallicRoughness":{
			"baseColorFactor":[1.0,
			1.0,
			1.0,
			1.0],
			"metallicFactor":1.0,
			"roughnessFactor":1.0
		},
		"emissiveFactor":[0.0,
		0.0,
		0.0],
		"doubleSided":true
	},
	{
		"name":"",
		"alphaMode":"OPAQUE",
		"pbrMetallicRoughness":{
			"baseColorFactor":[1.0,
			1.0,
			1.0,
			1.0],
			"metallicFactor":1.0,
			"roughnessFactor":1.0
		},
		"emissiveFactor":[0.0,
		0.0,
		0.0],
		"doubleSided":true
	},
	{
		"name":"",
		"alphaMode":"OPAQUE",
		"pbrMetallicRoughness":{
			"baseColorFactor":[1.0,
			1.0,
			1.0,
			1.0],
			"metallicFactor":1.0,
			"roughnessFactor":1.0
		},
		"emissiveFactor":[0.0,
		0.0,
		0.0],
		"doubleSided":true
	},
	{
		"name":"",
		"alphaMode":"OPAQUE",
		"pbrMetallicRoughness":{
			"baseColorFactor":[1.0,
			1.0,
			1.0,
			1.0],
			"metallicFactor":1.0,
			"roughnessFactor":1.0
		},
		"emissiveFactor":[0.0,
		0.0,
		0.0],
		"doubleSided":true
	}],
	"meshes":[{
		"name":"D",
		"primitives":[{
			"attributes":{
				"POSITION":1,
				"NORMAL":2,
				"TEXCOORD_0":3
			},
			"indices":0,
			"material":0
		}]
	},
	{
		"name":"a",
		"primitives":[{
			"attributes":{
				"POSITION":5,
				"NORMAL":6,
				"TEXCOORD_0":7
			},
			"indices":4,
			"material":1
		}]
	},
	{
		"name":"n",
		"primitives":[{
			"attributes":{
				"POSITION":9,
				"NORMAL":10,
				"TEXCOORD_0":11
			},
			"indices":8,
			"material":2
		}]
	},
	{
		"name":"i",
		"primitives":[{
			"attributes":{
				"POSITION":13,
				"NORMAL":14,
				"TEXCOORD_0":15
			},
			"indices":12,
			"material":3
		}]
	},
	{
		"name":"P",
		"primitives":[{
			"attributes":{
				"POSITION":17,
				"NORMAL":18,
				"TEXCOORD_0":19
			},
			"indices":16,
			"material":4
		}]
	},
	{
		"name":"é",
		"primitives":[{
			"attributes":{
				"POSITION":21,
				"NORMAL":22,
				"TEXCOORD_0":23
			},
			"indices":20,
			"material":5
		}]
	},
	{
		"name":"r",
		"primitives":[{
			"attributes":{
				"POSITION":25,
				"NORMAL":26,
				"TEXCOORD_0":27
			},
			"indices":24,
			"material":6
		}]
	},
	{
		"name":"e",
		"primitives":[{
			"attributes":{
				"POSITION":29,
				"NORMAL":30,
				"TEXCOORD_0":31
			},
			"indices":28,
			"material":7
		}]
	},
	{
		"name":"z",
		"primitives":[{
			"attributes":{
				"POSITION":33,
				"NORMAL":34,
				"TEXCOORD_0":35
			},
			"indices":32,
			"material":8
		}]
	}],
	"accessors":[{
		"bufferView":0,
		"type":"SCALAR",
		"componentType":5123,
		"count":8052,
		"byteOffset":0,
		"min":[0],
		"max":[1797]
	},
	{
		"bufferView":1,
		"type":"VEC3",
		"componentType":5126,
		"count":1798,
		"byteOffset":0,
		"min":[16.796875,
		0.0,
		-22.0],
		"max":[181.8359375,
		140.0390625,
		2.0]
	},
	{
		"bufferView":1,
		"type":"VEC3",
		"componentType":5126,
		"count":1798,
		"byteOffset":12,
		"min":[-1.0,
		-1.0,
		-1.0],
		"max":[1.0,
		1.0,
		1.0]
	},
	{
		"bufferView":1,
		"type":"VEC2",
		"componentType":5126,
		"count":1798,
		"byteOffset":24,
		"min":[0.0,
		0.0],
		"max":[1.0,
		1.0]
	},
	{
		"bufferView":2,
		"type":"SCALAR",
		"componentType":5123,
		"count":4980,
		"byteOffset":0,
		"min":[0],
		"max":[1227]
	},
	{
		"bufferView":3,
		"type":"VEC3",
		"componentType":5126,
		"count":1228,
		"byteOffset":0,
		"min":[12.59765625,
		0.0,
		-22.0],
		"max":[140.234375,
		110.3515625,
		2.0]
	},
	{
		"bufferView":3,
		"type":"VEC3",
		"componentType":5126,
		"count":1228,
		"byteOffset":12,
		"min":[-1.0,
		-1.0,
		-1.0],
		"max":[1.0,
		1.0,
		1.0]
	},
	{
		"bufferView":3,
		"type":"VEC2",
		"componentType":5126,
		"count":1228,
		"byteOffset":24,
		"min":[0.0,
		0.0],
		"max":[1.0,
		1.0]
	},
	{
		"bufferView":4,
		"type":"SCALAR",
		"componentType":5123,
		"count":3732,
		"byteOffset":0,
		"min":[0],
		"max":[977]
	},
	{
		"bufferView":5,
		"type":"VEC3",
		"componentType":5126,
		"count":978,
		"byteOffset":0,
		"min":[14.35546875,
		0.0,
		-22.0],
		"max":[135.3515625,
		109.9609375,
		2.000000238418579]
	},
	{
		"bufferView":5,
		"type":"VEC3",
		"componentType":5126,
		"count":978,
		"byteOffset":12,
		"min":[-1.0,
		-1.0,
		-1.0],
		"max":[1.0,
		1.0,
		1.0]
	},
	{
		"bufferView":5,
		"type":"VEC2",
		"componentType":5126,
		"count":978,
		"byteOffset":24,
		"min":[0.0,
		0.0],
		"max":[1.0,
		1.0]
	},
	{
		"bufferView":6,
		"type":"SCALAR",
		"componentType":5123,
		"count":372,
		"byteOffset":0,
		"min":[0],
		"max":[151]
	},
	{
		"bufferView":7,
		"type":"VEC3",
		"componentType":5126,
		"count":152,
		"byteOffset":0,
		"min":[14.35546875,
		0.0,
		-22.0],
		"max":[34.1796875,
		109.9609375,
		2.000000238418579]
	},
	{
		"bufferView":7,
		"type":"VEC3",
		"componentType":5126,
		"count":152,
		"byteOffset":12,
		"min":[-1.0,
		-1.0,
		-1.0],
		"max":[1.0,
		1.0,
		1.0]
	},
	{
		"bufferView":7,
		"type":"VEC2",
		"componentType":5126,
		"count":152,
		"byteOffset":24,
		"min":[0.0,
		0.0],
		"max":[1.0,
		1.0]
	},
	{
		"bufferView":8,
		"type":"SCALAR",
		"componentType":5123,
		"count":8436,
		"byteOffset":0,
		"min":[0],
		"max":[1877]
	},
	{
		"bufferView":9,
		"type":"VEC3",
		"componentType":5126,
		"count":1878,
		"byteOffset":0,
		"min":[16.796875,
		0.0,
		-22.0],
		"max":[178.41796875,
		140.0390625,
		2.0]
	},
	{
		"bufferView":9,
		"type":"VEC3",
		"componentType":5126,
		"count":1878,
		"byteOffset":12,
		"min":[-1.0,
		-1.0,
		-1.0],
		"max":[1.0,
		1.0,
		1.0]
	},
	{
		"bufferView":9,
		"type":"VEC2",
		"componentType":5126,
		"count":1878,
		"byteOffset":24,
		"min":[0.0,
		0.0],
		"max":[1.0,
		1.0]
	},
	{
		"bufferView":10,
		"type":"SCALAR",
		"componentType":5123,
		"count":1500,
		"byteOffset":0,
		"min":[0],
		"max":[607]
	},
	{
		"bufferView":11,
		"type":"VEC3",
		"componentType":5126,
		"count":608,
		"byteOffset":0,
		"min":[14.35546875,
		0.0,
		-22.0],
		"max":[129.19921875,
		153.41796875,
		2.0]
	},
	{
		"bufferView":11,
		"type":"VEC3",
		"componentType":5126,
		"count":608,
		"byteOffset":12,
		"min":[-1.0,
		-1.0,
		-1.0],
		"max":[1.0,
		1.0,
		1.0]
	},
	{
		"bufferView":11,
		"type":"VEC2",
		"componentType":5126,
		"count":608,
		"byteOffset":24,
		"min":[0.0,
		0.0],
		"max":[1.0,
		1.0]
	},
	{
		"bufferView":12,
		"type":"SCALAR",
		"componentType":5123,
		"count":8340,
		"byteOffset":0,
		"min":[0],
		"max":[1893]
	},
	{
		"bufferView":13,
		"type":"VEC3",
		"componentType":5126,
		"count":1894,
		"byteOffset":0,
		"min":[14.35546875,
		0.0,
		-22.0],
		"max":[143.84765625,
		109.9609375,
		2.0]
	},
	{
		"bufferView":13,
		"type":"VEC3",
		"componentType":5126,
		"count":1894,
		"byteOffset":12,
		"min":[-1.0,
		-1.0,
		-1.0],
		"max":[1.0,
		1.0,
		1.0]
	},
	{
		"bufferView":13,
		"type":"VEC2",
		"componentType":5126,
		"count":1894,
		"byteOffset":24,
		"min":[0.0,
		0.0],
		"max":[1.0,
		1.0]
	},
	{
		"bufferView":14,
		"type":"SCALAR",
		"componentType":5123,
		"count":1128,
		"byteOffset":0,
		"min":[0],
		"max":[455]
	},
	{
		"bufferView":15,
		"type":"VEC3",
		"componentType":5126,
		"count":456,
		"byteOffset":0,
		"min":[14.35546875,
		0.0,
		-22.0],
		"max":[129.19921875,
		110.3515625,
		2.000000238418579]
	},
	{
		"bufferView":15,
		"type":"VEC3",
		"componentType":5126,
		"count":456,
		"byteOffset":12,
		"min":[-1.0,
		-1.0,
		-1.0],
		"max":[1.0,
		1.0,
		1.0]
	},
	{
		"bufferView":15,
		"type":"VEC2",
		"componentType":5126,
		"count":456,
		"byteOffset":24,
		"min":[0.0,
		0.0],
		"max":[1.0,
		1.0]
	},
	{
		"bufferView":16,
		"type":"SCALAR",
		"componentType":5123,
		"count":948,
		"byteOffset":0,
		"min":[0],
		"max":[347]
	},
	{
		"bufferView":17,
		"type":"VEC3",
		"componentType":5126,
		"count":348,
		"byteOffset":0,
		"min":[8.3984375,
		0.0,
		-22.0],
		"max":[134.375,
		109.9609375,
		2.000000238418579]
	},
	{
		"bufferView":17,
		"type":"VEC3",
		"componentType":5126,
		"count":348,
		"byteOffset":12,
		"min":[-1.0,
		-1.0,
		-1.0],
		"max":[1.0,
		1.0,
		1.0]
	},
	{
		"bufferView":17,
		"type":"VEC2",
		"componentType":5126,
		"count":348,
		"byteOffset":24,
		"min":[0.0,
		0.0],
		"max":[1.0,
		1.0]
	}],
	"bufferViews":[{
		"buffer":0,
		"byteOffset":0,
		"byteLength":16104,
		"target":34963
	},
	{
		"buffer":0,
		"byteOffset":16104,
		"byteLength":57536,
		"target":34962,
		"byteStride":32
	},
	{
		"buffer":1,
		"byteOffset":0,
		"byteLength":9960,
		"target":34963
	},
	{
		"buffer":1,
		"byteOffset":9960,
		"byteLength":39296,
		"target":34962,
		"byteStride":32
	},
	{
		"buffer":2,
		"byteOffset":0,
		"byteLength":7464,
		"target":34963
	},
	{
		"buffer":2,
		"byteOffset":7464,
		"byteLength":31296,
		"target":34962,
		"byteStride":32
	},
	{
		"buffer":3,
		"byteOffset":0,
		"byteLength":744,
		"target":34963
	},
	{
		"buffer":3,
		"byteOffset":744,
		"byteLength":4864,
		"target":34962,
		"byteStride":32
	},
	{
		"buffer":4,
		"byteOffset":0,
		"byteLength":16872,
		"target":34963
	},
	{
		"buffer":4,
		"byteOffset":16872,
		"byteLength":60096,
		"target":34962,
		"byteStride":32
	},
	{
		"buffer":5,
		"byteOffset":0,
		"byteLength":3000,
		"target":34963
	},
	{
		"buffer":5,
		"byteOffset":3000,
		"byteLength":19456,
		"target":34962,
		"byteStride":32
	},
	{
		"buffer":6,
		"byteOffset":0,
		"byteLength":16680,
		"target":34963
	},
	{
		"buffer":6,
		"byteOffset":16680,
		"byteLength":60608,
		"target":34962,
		"byteStride":32
	},
	{
		"buffer":7,
		"byteOffset":0,
		"byteLength":2256,
		"target":34963
	},
	{
		"buffer":7,
		"byteOffset":2256,
		"byteLength":14592,
		"target":34962,
		"byteStride":32
	},
	{
		"buffer":8,
		"byteOffset":0,
		"byteLength":1896,
		"target":34963
	},
	{
		"buffer":8,
		"byteOffset":1896,
		"byteLength":11136,
		"target":34962,
		"byteStride":32
	}],
	"buffers":[{
		"uri":"data:application/octet-stream;base64,",
		"byteLength":73640
	},
	{
		"uri":"data:application/octet-stream;base64,",
		"byteLength":49256
	},
	{
		"uri":"data:application/octet-stream;base64,",
		"byteLength":38760
	},
	{
		"uri":"data:application/octet-stream;base64,",
		"byteLength":5608
	},
	{
		"uri":"data:application/octet-stream;base64,",
		"byteLength":76968
	},
	{
		"uri":"data:application/octet-stream;base64,",
		"byteLength":22456
	},
	{
		"uri":"data:application/octet-stream;base64,",
		"byteLength":77288
	},
	{
		"uri":"data:application/octet-stream;base64,",
		"byteLength":16848
	},
	{
		"uri":"data:application/octet-stream;base64,",
		"byteLength":13032
	}]
}