{
	"nodes":[{
		"name":"Capsule",
		"translation":[0.0,
		0.0,
		0.0],
		"rotation":[0.0,
		0.0,
		0.0,
		-1.0],
		"scale":[1.0,
		1.0,
		1.0],
		"mesh":0
	}],
	"asset":{
		"version":"2.0",
		"generator":"Created using the official Cinema 4D glTF Exporter 1.000x284978"
	},
	"scenes":[{
		"nodes":[0]
	}],
	"meshes":[{
		"name":"Capsule",
		"primitives":[{
			"attributes":{
				"POSITION":1,
				"NORMAL":2,
				"TEXCOORD_0":3
			},
			"indices":0
		}]
	}],
	"accessors":[{
		"bufferView":0,
		"type":"SCALAR",
		"componentType":5123,
		"byteOffset":0,
		"count":13452,
		"min":[0],
		"max":[2535]
	},
	{
		"bufferView":1,
		"type":"VEC3",
		"componentType":5126,
		"byteOffset":0,
		"count":2536,
		"min":[-56.29689025878906,
		-1.6081227129549799e-14,
		-58.31625747680664],
		"max":[56.29689025878906,
		56.3031120300293,
		50.0]
	},
	{
		"bufferView":1,
		"type":"VEC3",
		"componentType":5126,
		"byteOffset":12,
		"count":2536,
		"min":[-0.9995065927505493,
		-1.0,
		-0.9969203472137451],
		"max":[0.9995065927505493,
		1.0,
		1.0]
	},
	{
		"bufferView":1,
		"type":"VEC2",
		"componentType":5126,
		"byteOffset":24,
		"count":2536,
		"min":[0.0,
		0.3053855299949646],
		"max":[1.0,
		0.7251529693603516]
	}],
	"bufferViews":[{
		"buffer":0,
		"byteOffset":0,
		"byteLength":26904,
		"target":34963
	},
	{
		"buffer":0,
		"byteOffset":26904,
		"byteLength":81152,
		"target":34962,
		"byteStride":32
	}],
	"buffers":[{
		"uri":"data:application/octet-stream;base64,",
		"byteLength":108056
	}]
}