{
	"asset":{
		"version":"2.0",
		"generator":"Created using the official Cinema 4D glTF Exporter 1.000x284978"
	},
	"scenes":[{
		"nodes":[0,
		1]
	}],
	"nodes":[{
		"name":"Cylinder.1",
		"translation":[0.0,
		8.469579696655274,
		0.0],
		"rotation":[0.0,
		0.0,
		0.0,
		-1.0],
		"mesh":0,
		"scale":[1.0,
		1.0,
		1.0]
	},
	{
		"name":"Sphere",
		"translation":[0.0,
		6.710568904876709,
		0.0],
		"rotation":[0.0,
		0.0,
		0.0,
		-1.0],
		"scale":[1.0,
		1.0,
		1.0],
		"children":[2,
		3,
		4]
	},
	{
		"name":"Sphere",
		"mesh":1
	},
	{
		"name":"Sphere-Mat.1",
		"mesh":2
	},
	{
		"name":"Sphere-Mat",
		"mesh":3
	}],
	"materials":[{
		"pbrMetallicRoughness":{
			"baseColorFactor":[0.71,
			0.71,
			0.71,
			1.0],
			"metallicFactor":0.0,
			"roughnessFactor":0.5
		},
		"emissiveFactor":[0.0,
		0.0,
		0.0],
		"alphaMode":"OPAQUE",
		"doubleSided":true,
		"name":"Mat.2"
	},
	{
		"pbrMetallicRoughness":{
			"baseColorFactor":[0.4640000000000001,
			0.6376000000000001,
			0.8,
			1.0],
			"metallicFactor":0.0,
			"roughnessFactor":0.5
		},
		"emissiveFactor":[0.0,
		0.0,
		0.0],
		"alphaMode":"OPAQUE",
		"doubleSided":true,
		"name":"Mat.1"
	},
	{
		"pbrMetallicRoughness":{
			"baseColorFactor":[0.7000000000000001,
			0.6926499999999971,
			0.259,
			1.0],
			"metallicFactor":0.0,
			"roughnessFactor":0.5
		},
		"emissiveFactor":[0.0,
		0.0,
		0.0],
		"alphaMode":"OPAQUE",
		"doubleSided":true,
		"name":"Mat"
	}],
	"meshes":[{
		"name":"Cylinder.1",
		"primitives":[{
			"attributes":{
				"POSITION":1,
				"NORMAL":2,
				"TEXCOORD_0":3
			},
			"indices":0,
			"material":0
		}]
	},
	{
		"name":"Sphere",
		"primitives":[{
			"attributes":{
				"POSITION":5,
				"NORMAL":6,
				"TEXCOORD_0":7
			},
			"indices":4
		}]
	},
	{
		"name":"Sphere-Mat.1",
		"primitives":[{
			"attributes":{
				"POSITION":9,
				"NORMAL":10,
				"TEXCOORD_0":11
			},
			"indices":8,
			"material":1
		}]
	},
	{
		"name":"Sphere-Mat",
		"primitives":[{
			"attributes":{
				"POSITION":13,
				"NORMAL":14,
				"TEXCOORD_0":15
			},
			"indices":12,
			"material":2
		}]
	}],
	"accessors":[{
		"bufferView":0,
		"type":"SCALAR",
		"componentType":5123,
		"min":[0],
		"count":1500,
		"byteOffset":0,
		"max":[356]
	},
	{
		"bufferView":1,
		"type":"VEC3",
		"componentType":5126,
		"min":[-0.15000000596046449,
		-8.431158065795899,
		-0.1497040092945099],
		"count":357,
		"byteOffset":0,
		"max":[0.15000000596046449,
		8.431158065795899,
		0.1497040092945099]
	},
	{
		"bufferView":1,
		"type":"VEC3",
		"componentType":5126,
		"min":[-1.0,
		-1.0,
		-0.9991238713264465],
		"count":357,
		"byteOffset":12,
		"max":[1.0,
		1.0,
		0.9991238713264465]
	},
	{
		"bufferView":1,
		"type":"VEC2",
		"componentType":5126,
		"min":[0.0,
		0.0],
		"count":357,
		"byteOffset":24,
		"max":[1.0,
		1.0]
	},
	{
		"bufferView":2,
		"type":"SCALAR",
		"componentType":5123,
		"min":[0],
		"count":312,
		"byteOffset":0,
		"max":[105]
	},
	{
		"bufferView":3,
		"type":"VEC3",
		"componentType":5126,
		"min":[-9.171663284301758,
		4.786675453186035,
		-9.171663284301758],
		"count":106,
		"byteOffset":0,
		"max":[9.171663284301758,
		4.8177571296691898,
		9.171663284301758]
	},
	{
		"bufferView":3,
		"type":"VEC3",
		"componentType":5126,
		"min":[-0.5173125267028809,
		-0.8557813167572022,
		-0.5173125267028809],
		"count":106,
		"byteOffset":12,
		"max":[0.5173125267028809,
		-0.8557813167572022,
		0.5173125267028809]
	},
	{
		"bufferView":3,
		"type":"VEC2",
		"componentType":5126,
		"min":[0.0,
		0.3461538553237915],
		"count":106,
		"byteOffset":24,
		"max":[1.0,
		0.3461538553237915]
	},
	{
		"bufferView":4,
		"type":"SCALAR",
		"componentType":5123,
		"min":[0],
		"count":2448,
		"byteOffset":0,
		"max":[551]
	},
	{
		"bufferView":5,
		"type":"VEC3",
		"componentType":5126,
		"min":[-9.104791641235352,
		4.786675453186035,
		-9.104791641235352],
		"count":552,
		"byteOffset":0,
		"max":[9.104791641235352,
		10.360167503356934,
		9.104791641235352]
	},
	{
		"bufferView":5,
		"type":"VEC3",
		"componentType":5126,
		"min":[-0.8494687676429749,
		-1.0,
		-0.8495000600814819],
		"count":552,
		"byteOffset":12,
		"max":[0.8494687676429749,
		1.0,
		0.8495000600814819]
	},
	{
		"bufferView":5,
		"type":"VEC2",
		"componentType":5126,
		"min":[0.11538460850715637,
		0.0],
		"count":552,
		"byteOffset":24,
		"max":[0.9807697534561157,
		0.3461538553237915]
	},
	{
		"bufferView":6,
		"type":"SCALAR",
		"componentType":5123,
		"min":[0],
		"count":2856,
		"byteOffset":0,
		"max":[649]
	},
	{
		"bufferView":7,
		"type":"VEC3",
		"componentType":5126,
		"min":[-9.171663284301758,
		4.786675453186035,
		-9.171663284301758],
		"count":650,
		"byteOffset":0,
		"max":[9.171663284301758,
		10.360167503356934,
		9.171663284301758]
	},
	{
		"bufferView":7,
		"type":"VEC3",
		"componentType":5126,
		"min":[-0.8557500243186951,
		-1.0,
		-0.8557813167572022],
		"count":650,
		"byteOffset":12,
		"max":[0.8557500243186951,
		1.0,
		0.8557813167572022]
	},
	{
		"bufferView":7,
		"type":"VEC2",
		"componentType":5126,
		"min":[0.0,
		0.0],
		"count":650,
		"byteOffset":24,
		"max":[1.0,
		0.3461538553237915]
	}],
	"bufferViews":[{
		"buffer":0,
		"byteOffset":0,
		"byteLength":3000,
		"target":34963
	},
	{
		"buffer":0,
		"byteOffset":3000,
		"byteLength":11424,
		"target":34962,
		"byteStride":32
	},
	{
		"buffer":1,
		"byteOffset":0,
		"byteLength":624,
		"target":34963
	},
	{
		"buffer":1,
		"byteOffset":624,
		"byteLength":3392,
		"target":34962,
		"byteStride":32
	},
	{
		"buffer":2,
		"byteOffset":0,
		"byteLength":4896,
		"target":34963
	},
	{
		"buffer":2,
		"byteOffset":4896,
		"byteLength":17664,
		"target":34962,
		"byteStride":32
	},
	{
		"buffer":3,
		"byteOffset":0,
		"byteLength":5712,
		"target":34963
	},
	{
		"buffer":3,
		"byteOffset":5712,
		"byteLength":20800,
		"target":34962,
		"byteStride":32
	}],
	"buffers":[{
		"uri":"data:application/octet-stream;base64,",
		"byteLength":14424
	},
	{
		"uri":"data:application/octet-stream;base64,",
		"byteLength":4016
	},
	{
		"uri":"data:application/octet-stream;base64,",
		"byteLength":22560
	},
	{
		"uri":"data:application/octet-stream;base64,",
		"byteLength":26512
	}]
}