<?xml version="1.0" encoding="utf-8"?>
<!-- Generator: Adobe Illustrator 23.0.5, SVG Export Plug-In . SVG Version: 6.00 Build 0)  -->
<svg version="1.1" id="Capa_1" xmlns="http://www.w3.org/2000/svg" xmlns:xlink="http://www.w3.org/1999/xlink" x="0px" y="0px"
	 viewBox="0 0 100 100" style="enable-background:new 0 0 100 100;" xml:space="preserve">
<style type="text/css">
	.st0{fill:#FFFFFF;}
</style>
<g>
	<g>
		<path d="M46.3,100.4c-15.3,0-30.6,0-45.9,0c0-33.3,0-66.7,0-100c15.3,0,30.6,0,45.9,0C44.5,1.7,44,3.5,44,5.7
			c0.1,11.2,0,22.4,0,33.6c0,0.7-0.1,1.5-0.2,2.6c-1.8-1.2-3.2-2.2-4.5-3.2c-3.9-2.8-7.8-5.7-11.8-8.5c-2.4-1.7-5.1-1.5-6.6,0.5
			c-1.6,2.1-1.1,4.3,1.5,6.2c4.3,3.1,8.6,6.2,12.9,9.3c1.9,1.4,3.8,2.8,5.9,4.4c-0.6,0.3-0.8,0.5-1,0.6C34.1,55.5,28,59.9,22,64.2
			c-1.9,1.3-2.4,3.7-1.3,5.5c1.4,2.3,4.4,2.7,6.9,0.9c5.1-3.7,10.2-7.4,15.3-11.1c0.3-0.2,0.7-0.2,1.2-0.4c0,0.9,0,1.6,0,2.3
			c0,11.2,0,22.4,0,33.6C44,97.2,44.5,99,46.3,100.4z"/>
		<path d="M50.8,0.4c17.9,0,35.7,0,53.6,0c0,33.3,0,66.7,0,100c-17.9,0-35.8,0-53.6,0c0.1-0.2,0.2-0.4,0.4-0.6
			C56.6,95.9,62,92,67.5,88c5-3.6,10-7.2,15-10.8c2.9-2.1,3-5.3,0.3-7.2c-5.5-4-11.1-8-16.6-12c-3.5-2.5-6.9-5-10.5-7.6
			c9-6.5,17.8-12.9,26.7-19.3c3.1-2.2,3.2-5.3,0.1-7.6C74.8,18,67,12.4,59.2,6.8C56.4,4.7,53.6,2.5,50.8,0.4z"/>
		<path class="st0" d="M50.8,0.4c2.8,2.1,5.6,4.3,8.5,6.4C67,12.4,74.8,18,82.5,23.6c3.1,2.2,3,5.3-0.1,7.6
			c-8.8,6.3-17.6,12.7-26.7,19.3c3.6,2.6,7.1,5.1,10.5,7.6c5.5,4,11.1,8,16.6,12c2.7,2,2.5,5.1-0.3,7.2c-5,3.6-10,7.2-15,10.8
			C62,92,56.6,95.9,51.2,99.8c-0.2,0.1-0.3,0.4-0.4,0.6c-1.5,0-3,0-4.5,0C44.5,99,44,97.2,44,95.1c0.1-11.2,0-22.4,0-33.6
			c0-0.7,0-1.4,0-2.3c-0.5,0.2-0.9,0.2-1.2,0.4c-5.1,3.7-10.2,7.4-15.3,11.1c-2.5,1.8-5.5,1.3-6.9-0.9c-1.1-1.8-0.6-4.2,1.3-5.5
			c6.1-4.4,12.2-8.7,18.3-13.1c0.2-0.2,0.5-0.3,1-0.6c-2.2-1.6-4-3-5.9-4.4c-4.3-3.1-8.6-6.2-12.9-9.3c-2.5-1.8-3.1-4.1-1.5-6.2
			c1.6-2,4.2-2.2,6.6-0.5c3.9,2.8,7.8,5.7,11.8,8.5c1.4,1,2.8,2,4.5,3.2c0.1-1.1,0.2-1.8,0.2-2.6c0-11.2,0-22.4,0-33.6
			c0-2.2,0.5-4,2.3-5.3C47.8,0.4,49.3,0.4,50.8,0.4z M52.8,88.2c7-5,13.6-9.8,20.4-14.7c-6.9-5-13.5-9.8-20.4-14.7
			C52.8,68.7,52.8,78.2,52.8,88.2z M52.8,42c7-5,13.6-9.8,20.4-14.7c-6.9-5-13.5-9.7-20.4-14.6C52.8,22.6,52.8,32.1,52.8,42z"/>
		<path d="M52.8,88.2c0-9.9,0-19.5,0-29.4c6.8,4.9,13.5,9.7,20.4,14.7C66.4,78.3,59.8,83.1,52.8,88.2z"/>
		<path d="M52.8,42c0-9.9,0-19.4,0-29.4c6.8,4.9,13.5,9.7,20.4,14.6C66.4,32.2,59.8,37,52.8,42z"/>
	</g>
</g>
</svg>
