<?xml version="1.0" encoding="utf-8"?>
<!-- Generator: Adobe Illustrator 23.0.5, SVG Export Plug-In . SVG Version: 6.00 Build 0)  -->
<svg version="1.1" id="Capa_1" xmlns="http://www.w3.org/2000/svg" xmlns:xlink="http://www.w3.org/1999/xlink" x="0px" y="0px"
	 viewBox="0 0 100 100" style="enable-background:new 0 0 100 100;" xml:space="preserve">
<style type="text/css">
	.st0{fill:#FFFFFF;}
	.st1{fill:#4CAE50;}
	.st2{fill:#F34336;}
	.st3{fill:#FEFEFD;}
	.st4{fill:#FEC007;}
	.st5{fill:#F8F8F8;}
	.st6{fill:#2196F2;}
</style>
<path class="st0" d="M82,100H17.1c-8.4,0-15.3-6.9-15.3-15.3V15.3C1.8,6.9,8.7,0,17.1,0H82c8.4,0,15.3,6.9,15.3,15.3v69.3
	C97.3,93.1,90.4,100,82,100z"/>
<g>
	<g>
		<path class="st1" d="M10.1,53.5c0-2.1,0-4.2,0-6.3c0.2-0.1,0.1-0.4,0.2-0.5c0.4-3.9,1.3-7.7,2.8-11.3c1.3-3.1,2.9-6,5.1-8.7
			c2.2,3.7,4.4,7.5,6.6,11.2c2.6,4.4,5.2,8.9,7.8,13.3c0.1,0.2,0.1,0.5,0.2,0.7c1,9.7,10.4,16.2,19.9,13.9c1.9-0.5,3.6-1.4,5.3-2.3
			c-0.1,0.2-0.2,0.4-0.4,0.7c-4.5,8.1-9,16.2-13.6,24.3c-0.1,0-0.2,0-0.3,0c-6.9-1-13.2-3.5-18.6-7.8C17,74.2,12.2,66,10.5,55.9
			C10.4,55.1,10.5,54.2,10.1,53.5z"/>
		<path class="st2" d="M32.5,51.1c-2.6-4.4-5.2-8.9-7.8-13.3c-2.2-3.7-4.4-7.5-6.6-11.2c0-0.1,0.1-0.2,0.1-0.3
			c6.1-7.7,14-12.4,23.6-14.2c1.2-0.2,2.5-0.2,3.7-0.6c2,0,4,0,6,0c0.7,0.3,1.5,0.2,2.2,0.3c9,1.3,16.7,5.2,22.9,11.9
			c3.3,3.5,5.9,7.4,7.6,11.9c-7.6,0-15.1,0-22.7,0c-2,0-3.9,0-5.9,0c-0.2-0.1-0.4-0.2-0.6-0.2c-8.9-4-19.3,0.9-22,10.3
			C32.7,47.5,32.6,49.3,32.5,51.1z"/>
		<path class="st3" d="M84.4,35.7c-1.7-4.5-4.3-8.4-7.6-11.9c-6.3-6.6-13.9-10.5-22.9-11.9c-0.7-0.1-1.5,0-2.2-0.3
			c11.7,0,23.4,0,35.1,0c0.5,0,0.6,0.1,0.6,0.6c0,25.4,0,50.7,0,76.1c0,0.5-0.1,0.6-0.6,0.6c-25.4,0-50.7,0-76.1,0
			c-0.5,0-0.6-0.1-0.6-0.6c0-11.6,0-23.2,0-34.8c0.4,0.8,0.3,1.6,0.4,2.5C12.2,66,17,74.2,25,80.5c5.5,4.3,11.7,6.9,18.6,7.8
			c0.1,0,0.2,0,0.3,0c3.7,0.6,7.3,0.5,10.9-0.1c12.5-2.2,21.8-8.9,27.9-20c3.9-7.2,5.2-15,4.2-23.1C86.5,41.8,85.7,38.7,84.4,35.7z"
			/>
		<path class="st3" d="M45.7,11.6c-1.2,0.4-2.5,0.4-3.7,0.6c-9.6,1.8-17.5,6.5-23.6,14.2c-0.1,0.1-0.1,0.2-0.1,0.3
			c-2.2,2.6-3.8,5.5-5.1,8.7c-1.5,3.6-2.5,7.4-2.8,11.3c0,0.2,0.1,0.4-0.2,0.5c0-11.6,0-23.3,0-34.9c0-0.5,0.1-0.7,0.7-0.7
			C22.4,11.6,34,11.6,45.7,11.6z"/>
		<path class="st4" d="M84.4,35.7c1.3,3,2.1,6.2,2.5,9.4c1,8.2-0.2,15.9-4.2,23.1c-6.1,11.1-15.4,17.8-27.9,20
			c-3.6,0.6-7.3,0.7-10.9,0.1c4.5-8.1,9-16.2,13.6-24.3c0.1-0.2,0.2-0.4,0.4-0.7c0.2-0.2,0.4-0.3,0.6-0.5c6.8-5.2,8.4-14.6,3.7-21.7
			c-1.6-2.4-3.7-4.2-6.2-5.5c2,0,3.9,0,5.9,0C69.3,35.7,76.8,35.7,84.4,35.7z"/>
		<path class="st5" d="M55.8,35.7c2.5,1.4,4.6,3.1,6.2,5.5c4.7,7.1,3.1,16.5-3.7,21.7c-0.2,0.2-0.4,0.3-0.6,0.5
			c-1.7,1-3.4,1.8-5.3,2.3c-9.5,2.3-18.8-4.2-19.9-13.9c0-0.2-0.1-0.5-0.2-0.7c0.1-1.8,0.2-3.6,0.7-5.4c2.7-9.4,13.1-14.2,22-10.3
			C55.4,35.5,55.6,35.6,55.8,35.7z M48.7,63c7.2,0,12.9-5.8,12.8-12.9c0-7.1-5.8-12.8-12.9-12.8c-7.1,0-12.8,5.8-12.8,12.9
			C35.8,57.3,41.6,63,48.7,63z"/>
		<path class="st6" d="M48.7,63c-7.1,0-12.8-5.7-12.9-12.8c0-7.1,5.7-12.8,12.8-12.9c7.2,0,12.9,5.6,12.9,12.8
			C61.5,57.2,55.8,63,48.7,63z"/>
	</g>
</g>
</svg>
