<?xml version="1.0" encoding="utf-8"?>
<!-- Generator: Adobe Illustrator 23.0.5, SVG Export Plug-In . SVG Version: 6.00 Build 0)  -->
<svg version="1.1" id="Capa_1" xmlns="http://www.w3.org/2000/svg" xmlns:xlink="http://www.w3.org/1999/xlink" x="0px" y="0px"
	 viewBox="0 0 100 100" style="enable-background:new 0 0 100 100;" xml:space="preserve">
<style type="text/css">
	.st0{fill:#FFFFFF;}
	.st1{fill:#C54943;}
	.st2{fill:#ECEEF0;}
	.st3{fill:#CDD6D9;}
</style>
<path class="st0" d="M80.1,100H19.9C9,100,0,91,0,80.1V19.9C0,9,9,0,19.9,0h60.1C91,0,100,9,100,19.9v60.1C100,91,91,100,80.1,100z"
	/>
<g>
	<g>
		<path class="st1" d="M17.8,69.4c0-12.8,0-25.7,0-38.5c0.2-0.2,0.2-0.4,0.3-0.7c0.7-2,2-3.3,4-4c1.3-0.4,2.6-0.3,3.9-0.3
			c0.2,0.1,0.3,0.3,0.5,0.4c7.7,6.1,15.4,12.2,23.1,18.3c0.4,0.3,0.6,0.3,1.1,0c5.7-4.5,11.4-9,17.1-13.5c2.2-1.7,4.3-3.4,6.4-5.1
			c0.7,0,1.5,0,2.2,0c0.9,0,1.7,0.2,2.5,0.6c2.4,1.2,3.5,3.2,3.5,5.7c0,8.1,0,16.1,0,24.2c0,3.9,0,7.7,0,11.6c0,3-1.7,5.3-4.6,6.1
			c-1.1,0.3-2.3,0.2-3.4,0.2c0-12.5,0-25,0-37.7c-0.2,0.2-0.4,0.3-0.5,0.4c-5.5,4.2-10.9,8.4-16.4,12.6c-2.4,1.8-4.8,3.7-7.2,5.6
			c-0.3,0-0.5-0.3-0.7-0.4C41.8,48.9,34.1,42.9,26.4,37c-0.1-0.1-0.2-0.2-0.5-0.2c0,0.2,0,0.5,0,0.7c0,8.6,0,17.3,0,25.9
			c0,3.7,0,7.3,0,11c-0.6,0-1.2,0-1.8,0c-2.9,0-5.1-1.6-6-4.4C18,69.8,18,69.5,17.8,69.4z"/>
		<path class="st0" d="M74.3,74.3c1.2,0,2.3,0.1,3.4-0.2c2.9-0.8,4.6-3.1,4.6-6.1c0-3.9,0-7.7,0-11.6c0-8.1,0-16.1,0-24.2
			c0-2.6-1.1-4.6-3.5-5.7c-0.8-0.4-1.6-0.6-2.5-0.6c-0.7,0-1.5,0-2.2,0c-0.3,0-0.5,0-0.8,0c-15.5,0-31,0-46.6,0c-0.3,0-0.5,0-0.8,0
			c-1.3,0-2.6-0.1-3.9,0.3c-2,0.6-3.3,2-4,4c-0.1,0.2-0.1,0.5-0.3,0.7c0-4.2,0-8.4,0-12.7c0-0.4,0.1-0.5,0.5-0.5
			c21.2,0,42.5,0,63.7,0c0.4,0,0.5,0.1,0.5,0.5c0,21.2,0,42.5,0,63.7c0,0.4-0.1,0.5-0.5,0.5c-21.2,0-42.5,0-63.7,0
			c-0.4,0-0.5-0.1-0.5-0.5c0-4.2,0-8.4,0-12.5c0.2,0.1,0.2,0.3,0.2,0.5c0.9,2.8,3.1,4.4,6,4.4c0.6,0,1.2,0,1.8,0c0.1,0,0.3,0,0.4,0
			c15.7,0,31.4,0,47,0c0.2,0,0.5,0,0.7,0C74.1,74.3,74.2,74.3,74.3,74.3z"/>
		<path class="st2" d="M74,74.3c-0.2,0-0.5,0-0.7,0c-15.7,0-31.4,0-47,0c-0.1,0-0.3,0-0.4,0c0-3.7,0-7.3,0-11c0-8.6,0-17.3,0-25.9
			c0-0.2,0-0.4,0-0.7c0.2,0,0.3,0.1,0.5,0.2c7.7,5.9,15.4,11.8,23.1,17.8c0.2,0.2,0.4,0.4,0.7,0.4c0.2,0.3,0.5,0.5,0.7,0.8
			c2.1,1.6,4.1,3.2,6.2,4.9c4.9,3.9,9.8,7.8,14.7,11.7C72.6,73.1,73.5,73.5,74,74.3z"/>
		<path class="st2" d="M26,26c0.3,0,0.5,0,0.8,0c15.5,0,31,0,46.6,0c0.3,0,0.5,0,0.8,0c-2.1,1.7-4.3,3.4-6.4,5.1
			c-5.7,4.5-11.4,9-17.1,13.5c-0.4,0.3-0.6,0.3-1.1,0c-7.7-6.1-15.4-12.2-23.1-18.3C26.3,26.3,26.1,26.1,26,26z"/>
		<path class="st3" d="M74,74.3c-0.6-0.8-1.4-1.3-2.2-1.9C67,68.6,62,64.7,57.1,60.8C55.1,59.2,53,57.6,51,56
			c-0.3-0.2-0.6-0.4-0.7-0.8c2.4-1.9,4.8-3.7,7.2-5.6c5.5-4.2,10.9-8.4,16.4-12.6c0.1-0.1,0.3-0.2,0.5-0.4c0,12.6,0,25.1,0,37.7
			C74.2,74.3,74.1,74.3,74,74.3z"/>
	</g>
</g>
</svg>
