<?xml version="1.0" encoding="utf-8"?>
<!-- Generator: Adobe Illustrator 23.0.5, SVG Export Plug-In . SVG Version: 6.00 Build 0)  -->
<svg version="1.1" id="Capa_1" xmlns="http://www.w3.org/2000/svg" xmlns:xlink="http://www.w3.org/1999/xlink" x="0px" y="0px"
	 viewBox="0 0 100 100" style="enable-background:new 0 0 100 100;" xml:space="preserve">
<style type="text/css">
	.st0{fill:#4EA1FE;}
	.st1{fill:#62B9FE;}
	.st2{fill:#4075FE;}
	.st3{fill:#26C078;}
	.st4{fill:#3F88FE;}
	.st5{fill:#4FCC83;}
	.st6{fill:#506FC1;}
	.st7{fill:#6197D5;}
	.st8{fill:#EECC7A;}
	.st9{fill:#76DA92;}
	.st10{fill:#5ED289;}
	.st11{fill:#87DE96;}
	.st12{fill:#3EC77D;}
	.st13{fill:#72D78F;}
	.st14{fill:#9CE59D;}
	.st15{fill:#55CE86;}
	.st16{fill:#70ADD2;}
	.st17{fill:#55BBBD;}
	.st18{fill:#40AEBF;}
	.st19{fill:#8EACB6;}
	.st20{fill:#95AFC3;}
	.st21{fill:#B0BAAB;}
	.st22{fill:#9DB3B5;}
	.st23{fill:#64BEC9;}
	.st24{fill:#94B4B9;}
	.st25{fill:#9DB1B8;}
	.st26{fill:#71C0CB;}
	.st27{fill:#A3BBB5;}
	.st28{fill:#AEC3B7;}
	.st29{fill:#407CFE;}
	.st30{fill:#01B46D;}
	.st31{fill:#02B56C;}
	.st32{fill:#13B484;}
	.st33{fill:#27C078;}
	.st34{fill:#3DC87D;}
</style>
<g>
	<path class="st0" d="M0.1,66.6c0-0.7,0-1.3,0-2c0-9.3,0-18.5,0-27.8c0-0.3,0-0.6,0-1c0.1-0.3,0.1-0.5,0.1-0.8c0-2.9,0-5.9,0-8.8
		c0-1.5,0.2-2.9,0.2-4.4c0-0.4,0.1-0.7,0.6-0.8c0.4-0.1,1.2,0,1.6,0.2c0.2,0.1,0.5,0.1,0.7,0.1c3.5,0,6.9,0,10.4,0
		c0.8,0,1.7-0.2,2.5-0.1c0.2,0,0.3,0,0.5-0.2c0.2-0.2,0.4-0.5,0.7-0.3c0.3,0.2,0.3,0.5,0.3,0.8c-0.2,1.5-0.4,3.1-0.3,4.6
		c0,0.4-0.1,0.8,0.1,1.2c0.2,0.3,0.4,0.6,0.4,0.9c0.3,1.1,0.9,2.1,1.7,3c0.6,0.7,1.3,1.4,2,2c0.2,0.3,0.5,0.5,0.9,0.6
		c0.8,0.2,1.6,0.5,2.3,0.9c0.3,0.3,0.8,0.2,1.1,0.3c0.1,0,0.1,0.1,0.2,0.1c1,0.2,2,0.2,3,0c0.1-0.1,0.2-0.1,0.3-0.1
		c0.4-0.1,0.8,0.1,1.1-0.2c0.1,0,0.1-0.1,0.2-0.1c0.5,0,0.9-0.3,1.3-0.5c0.1,0,0.1-0.1,0.2-0.1c0.5-0.2,1-0.4,1.4-0.8
		c1.3-1.2,2.6-2.5,3.5-4.1c0.3-0.5,0.4-1.1,0.6-1.7c0-0.1,0.1-0.1,0.1-0.2c0.1-0.1,0.2-0.1,0.2-0.2c0.3-1.3,0.4-2.7,0-4
		c-0.3-0.4-0.4-0.9-0.4-1.4c0-0.2,0-0.5,0.2-0.6c0.3-0.1,0.7-0.1,0.9,0c1,0.4,2,0.3,3,0.3c18.3,0,36.6,0,54.9,0
		c1.1,0,2.3,0.2,3.2-0.6c0.2,0.3,0.1,0.6,0.1,0.9c0,9.2,0,18.3,0,27.5c0,0.3,0.1,0.6-0.2,0.9c-0.5,0.3-0.7-0.1-1-0.3
		c-0.8-0.6-1.6-1.2-2.4-1.8c-0.1-0.7-0.6-1-1.2-1.2c-0.2-0.1-0.3-0.1-0.5-0.2c-0.4-0.5-1-0.7-1.5-1.1c-0.7-0.6-1.4-1.1-2.1-1.7
		c-0.1-0.1-0.1-0.1-0.2-0.2c-0.6-0.2-1-0.5-1.4-1.1c-0.3-0.6-1.1-0.8-1.6-1.3c-0.9-0.7-1.8-1.3-2.6-2.1c-0.3-0.3-0.8-0.4-1-0.7
		c-1.6-1.6-3.6-2.8-5.3-4.3c-0.1-0.1-0.3-0.2-0.4-0.4c-0.1-0.3-0.4-0.5-0.7-0.6c-0.1,0-0.1-0.1-0.2-0.1c-0.2-0.3-0.5-0.4-0.9-0.5
		c-0.7-0.2-1.4-0.6-2.1-0.8c-1.4-0.5-2.8-0.2-4.2-0.3c-2.1-0.1-3.9,0.8-5.5,2c-1.2,0.9-2.4,1.8-3.6,2.7c-1.2,0.9-2.3,1.8-3.5,2.7
		c-1.1,0.8-2.2,1.6-3.2,2.4c-0.9,0.7-1.8,1.4-2.8,2.1c-1.4,1.1-2.8,2.2-4.2,3.2c-0.7,0.5-1.4,1-2,1.5c-0.4,0.4-0.8,0.7-1.3,1
		c-1.4,1.1-3,2-4.3,3.3c-0.2,0.2-0.3,0.3-0.6,0.3c-0.5-0.2-1-0.5-1.3-0.9c-1.1-1-2.3-1.9-3.3-2.9c-1.4-1.3-2.8-2.5-4.7-3
		c-1.5-0.4-3-0.9-4.5-0.3c-0.2,0.1-0.5,0-0.8,0c-0.3,0-0.5,0-0.8,0.2c-0.1,0-0.1,0.1-0.2,0.1c-0.3,0.1-0.6-0.1-0.7,0.3
		c-0.2,0.4-0.8,0.4-1.1,0.6c-1.6,1-2.8,2.3-4.2,3.6c-2.1,2-4.2,3.9-6.3,5.9c-0.1,0.1-0.2,0.3-0.3,0.4c-1.7,1.3-3,2.9-4.6,4.3
		C6,61.4,5.3,62,4.7,62.6C3.6,63.1,2.9,64,2.1,65C1.6,65.7,1.1,66.5,0.1,66.6z"/>
	<path class="st1" d="M99.7,20.8c-0.2,0.8-0.8,0.9-1.5,0.9c-18.9,0-37.8,0-56.7,0c-1,0-2,0.1-2.9-0.4c-0.2-0.1-0.6,0-0.9-0.1
		c-0.6-0.3-0.8-0.9-0.8-1.5c0.1-0.2,0.3-0.1,0.5-0.2c-0.3-0.2-0.3,0.1-0.5,0.2c-0.2,0-0.3-0.1-0.4-0.3c0-0.4-0.2-0.7-0.6-0.9
		c-1.1-1.5-2.7-2.3-4.2-3.2c-0.2-0.3-0.6-0.2-0.9-0.2c-1.7-0.4-3.4-0.7-5.2-0.3c-1.8,0.4-3.4,1.2-4.8,2.3c-1.4,1.1-2.4,2.6-3.1,4.3
		c-0.1,0.2-0.1,0.6-0.5,0.4c0-0.1,0-0.3,0-0.4c0-0.2-0.1-0.3-0.3-0.3c-0.2,0-0.3,0.1-0.3,0.3c0,0.4-0.2,0.5-0.6,0.4
		c-0.8-0.2-1.5,0-2.3,0c-3.8,0.1-7.5,0-11.3,0C2.2,21.7,2,21.5,2,21c0-0.1,0-0.3-0.2-0.4c-0.2-0.1-0.3,0.2-0.3,0.3
		c-0.1,0.4-0.2,0.7-0.7,0.4c-0.2-0.1-0.3,0.2-0.3,0.4c0.1,1.7-0.4,3.3-0.3,5c0.1,2.8,0,5.6,0,8.4c0,0.3,0.1,0.5-0.1,0.8
		c0-2,0-3.9,0-5.9c0-4.4-0.1-8.8,0.1-13.2c0.2-3.9,1.7-7.4,4.2-10.4c2-2.4,4.5-4.1,7.5-5.2c1.9-0.7,3.9-1.1,6-1.1
		C39.3,0,60.7,0,82.2,0c5.8,0,10.5,2.6,14.1,7.2c2.1,2.7,3.2,5.7,3.5,9.1c0,1.3,0.1,2.5,0.1,3.8C99.9,20.3,99.9,20.6,99.7,20.8z"/>
	<path class="st2" d="M99.9,81.2c0.1,2.7-0.4,5.4-1.5,7.9c-1.9,4.3-5,7.4-9.3,9.3c-1.7,0.7-3.4,1.3-5.2,1.4
		c-1.1,0.1-2.1,0.1-3.2,0.1c-8.5,0-17,0-25.5,0c-0.3,0-0.7,0.1-1,0.1c0,0-0.1,0-0.1,0c-0.4-0.5-0.9-0.4-1.3,0c-1,0-2.1,0.1-3.1-0.1
		c-0.4-0.7-0.2-1.4-0.1-2.2c0-0.3,0.2-0.5,0.5-0.5c1.1-0.1,2.2-0.3,3.3,0.3c0.1-0.5,0.1-0.9,0.1-1.4c0-4.1,0-8.2,0-12.2
		c0-0.5-0.2-0.6-0.6-0.6c-0.7,0-1.5,0-2.2,0c-0.2,0-0.5,0-0.7-0.1c-0.2-0.1-0.4-0.2-0.4-0.4c0-0.2,0.1-0.4,0.4-0.5
		c0.2-0.1,0.3-0.1,0.5-0.1c1.3,0,2.7,0,3.9,0c-1.3-0.2-2.7-0.1-4.1-0.2c-0.3,0-0.8,0.1-0.6-0.6c0.3-0.2,0.7-0.1,1.1-0.1
		c16,0,32,0,48,0c0.3,0,0.6,0,0.9-0.1C99.8,81.1,99.8,81.1,99.9,81.2z"/>
	<path class="st3" d="M99.9,81.2C99.9,81.2,99.9,81.2,99.9,81.2c-0.2,0-0.4,0.1-0.4-0.1c0.2-1.3,0.1-2.5,0.1-3.8c0-6.3,0-12.7,0-19
		c0-0.9-0.1-1.7,0-2.6c0-0.2,0-0.4-0.1-0.5c-0.2-0.3-0.1-0.8-0.5-0.8c-0.4,0-0.4,0.4-0.6,0.7c-0.2,0.3-0.4,0.5-0.7,0.7
		c-0.9,0.6-1.7,1.4-2.8,1.7c-0.3,0.1-0.4,0.4-0.7,0.6c-1.1,1-2.2,1.8-3.4,2.6c-0.9,0.6-2,1.3-3,1.8c-1,0.4-1.6,1.1-2.3,1.8
		c-0.3,0.4-0.7,0.6-1.1,0.8c-1,0.6-2.3,0.8-2.9,2c-0.1,0.3-0.4,0.5-0.7,0.6c-1,0.4-1.8,1.1-2.6,1.8c-0.6,0.5-1.3,1.1-2.1,1.5
		c-0.6,0.3-1.1,0.8-1.5,1.3c-0.4,0.4-0.8,0.6-1.4,0.7c-0.6,0-1,0.5-1.3,0.9c-0.3,0.4-0.6,0.7-1.1,0.7c-0.5,0-0.8,0.3-1,0.6
		c-0.3,0.4-0.7,0.7-1.2,0.9c-0.8,0.3-1.3,0.9-1.6,1.7c-0.4,1.2-0.9,1.5-2.1,1.5c-4.5,0-8.9,0-13.4,0c-1.9,0-3.8,0.3-5.7,0.1
		C40.7,79,35.4,79.2,30,79.1c-1.7,0-3.5,0.2-5.2,0.1c-7-0.3-13.9-0.1-20.9-0.2c-0.7,0-1.4,0.2-2.1-0.1c-0.1,0-0.2,0-0.3,0.1
		c-0.4,0.3-0.6,0.1-0.9-0.2c-0.1,0.3,0,0.6-0.1,0.9c-0.4,0.4-0.1,0.9-0.4,1.4c-0.1,0.1-0.1,0.1-0.2,0.1c0-0.7,0-1.3,0-2
		c0.2-0.6,0.1-1.2,0.1-1.8c0.1-1.8-0.1-3.5,0.1-5.3c0.1-0.7,0.2-0.8,0.8-0.4c0.1,0,0.2-0.2,0.2-0.3C1.4,71.3,1.4,71,1.7,71
		c0.3,0,0.4,0.2,0.4,0.4c0.1,0.4,0.3,0.5,0.7,0.3c0.4-0.1,0.7-0.1,1.1-0.1c18,0,36,0,54.1,0c0.4,0,0.8,0,1.3,0.1
		c0.8,0.1,0.9-0.1,0.7-0.9c0-0.1-0.1-0.2-0.1-0.3c0-0.6,0.3-0.4,0.5-0.2c0.4,0.3,0.9,0.7,1.3,1.1c0.9,0.8,1.8,1.6,2.7,2.5
		c-1-1.1-1.8-2.3-2.8-3.4c-0.1-0.1-0.2-0.3-0.1-0.5c0.2-0.1,0.4,0,0.7,0c0.3,0.1,0.6,0,0.9-0.2c0.2-0.2,0.5-0.3,0.8-0.4
		c0.7-0.3,1.5-0.6,1.9-1.3c0.4-0.5,0.9-0.7,1.4-1.1c1-0.7,2-1.5,3-2.3c0,0,0.1,0,0.1,0c1-0.3,1.9-0.8,2.5-1.8
		c0.1-0.2,0.3-0.3,0.5-0.3c0.7,0,1.1-0.4,1.4-1c0.2-0.4,0.5-0.6,1-0.7c0.1,0,0.3,0,0.3-0.1c0.8-0.9,1.9-1.4,2.9-2.1
		c1-0.6,1.7-1.6,2.8-2c0.4-0.1,0.6-0.5,0.8-0.8c0.4-0.5,0.9-0.8,1.5-0.9c0.6-0.1,0.9-0.4,1.3-0.8c0.7-0.8,1.4-1.6,2.5-1.9
		c0.4-0.1,0.8-0.4,1.1-0.8c0.3-0.5,0.8-0.8,1.4-0.8c0.5,0,0.8-0.3,0.9-0.7c0.3-0.6,0.7-1,1.4-1.2c0.8-0.2,1.3-0.9,1.9-1.5
		c0.2-0.3,0.4-0.5,0.8-0.5c0.4,0.3,0.8,0.4,1.1,0.8c0.7,0.5,1.5,1.1,2.2,1.6c0.3,0.2,0.5,0.6,0.9,0.6c0.4,0.1,0.6,0.4,0.5,0.8
		c0,3.1,0,6.2,0,9.3c0,6.7,0,13.3,0,20C100,80.5,100,80.8,99.9,81.2z"/>
	<path class="st4" d="M99.6,81.1c0.1,0,0.2,0,0.3,0.1c-0.1,0.2-0.3,0.3-0.5,0.3c-9.4,0-18.7,0-28.1,0c-7.2,0-14.4,0-21.5,0
		c-0.3,0.2-0.6,0.2-1,0.2c-5.7,0-11.3,0-17,0c-0.9,0-1.8-0.1-2.5-0.1c1.1-0.1,2.4,0.1,3.6,0.1c0.1,0,0.2,0,0.4,0
		c0.1,0,0.3,0.1,0.3,0.2c0,0.2-0.2,0.2-0.3,0.3c-0.5,0.2-1,0.3-1.6,0.3c-1.5,0-3,0.1-4.2,0c1,0.1,2.4,0.1,3.8,0.1c0.1,0,0.1,0,0.2,0
		c0.3,0,0.7,0,0.8,0.4c0,0.4-0.4,0.4-0.7,0.5c-0.8,0.2-0.9,0.2-0.9,1.2c0,4.6,0,9.2,0,13.7c0,0.4,0.1,0.9-0.2,1.3
		c-0.3,0.1-0.6,0.1-0.9,0.1c-3.5,0-7,0-10.5,0c-1,0-2.1,0-3.1-0.1c-2.4-0.1-4.5-0.9-6.6-2c-2.9-1.5-5.2-3.7-6.9-6.5
		C0.8,88.2-0.1,84.8,0,81.2c0.1,0,0.1,0,0.2,0c0.2-0.2,0.4-0.2,0.7-0.2c0.2,0,0.5,0,0.7,0c13.8,0,27.6,0,41.4,0c0.1,0,0.2,0,0.4,0
		c3.4,0.1,6.9,0,10.3,0c0.3,0,0.6,0,0.9,0c3.1,0,6.3,0,9.4,0c4.2,0,8.4,0,12.7,0c7.2,0,14.4,0,21.6,0C98.7,80.9,99.2,80.8,99.6,81.1
		z"/>
	<path class="st5" d="M59.9,70.3c0.1,0.2,0.2,0.4,0.3,0.5c0.2,0.3,0.2,0.7,0.1,1c-0.2,0.4-0.6,0.2-0.9,0.2C58.9,72,58.6,72,58.2,72
		C40,72,21.8,72,3.6,72c-0.6,0-1.1,0-1.5,0.6c-0.3-0.5,0.1-1.1-0.4-1.4c-0.2,0.2-0.3,0.5-0.3,0.8c0,0.2,0.1,0.5-0.2,0.5
		c-0.2,0-0.3-0.3-0.4-0.5c0-0.1-0.1-0.2-0.2-0.4c0,0.7-0.4,1.3-0.4,2c0,1.6,0,3.2,0,4.9c0,0.3,0.1,0.5-0.1,0.8c0-3.2,0-6.3,0-9.5
		c0-1,0-2.1,0-3.1c0.8-0.4,1.4-1,1.9-1.7c0.5-0.5,1-0.9,1.5-1.3c0.2-0.2,0.5-0.3,0.8-0.3c0.6,0.4,1.2,0.4,1.8,0.3
		c0.6-0.1,1.2,0.1,1.8,0.1c13.3,0,26.7,0,40,0c0.9,0,1.7-0.2,2.6,0.1c0.5,0.1,0.6-0.1,0.3-0.9c-0.1-0.5,0.2-0.4,0.5-0.3
		c0.3,0.2,0.6,0.5,0.8,0.7c2.5,2.2,5,4.4,7.5,6.6C59.8,70,60,70.1,59.9,70.3z"/>
	<path class="st6" d="M16.1,99.8c4.8,0,9.6,0,14.4,0c0.3-0.3,0.6-0.2,1-0.2c5.8,0,11.5,0,17.3,0c0.3,0,0.7,0,1,0.2
		c1.1,0,2.2,0,3.3,0c0.3-0.2,0.6-0.2,0.9,0c9.7,0,19.3,0,29,0c0.3,0,0.7,0,1,0c-0.8,0.3-1.6,0.2-2.3,0.2c-9.8,0-19.7,0-29.5,0
		c-6.4,0-12.9,0-19.3,0c-4.5,0-9,0-13.5,0C18.2,100,17.2,100,16.1,99.8z"/>
	<path class="st7" d="M100,50.9c0-0.4-0.5-0.5-0.5-0.8c0.4-0.1,0.3-0.4,0.3-0.7c0-9.5,0-19.1,0-28.6c0.1-1.5-0.1-3,0.1-4.6
		c0.1,0.6,0.2,1.2,0.2,1.8c0,10.8,0,21.7,0,32.5C100,50.7,100,50.8,100,50.9z"/>
	<path class="st8" d="M36.6,19.3c0,0.2,0.1,0.3,0.3,0.3l0,0c0.1,0.6,0.4,1.1,0.7,1.6c0.2,0.6,0.3,1.3,0.5,1.9c0.3,1.5,0.3,3-0.3,4.4
		l0,0c-0.2,0.6-0.4,1.2-0.6,1.8c-0.8,1.7-2.1,3-3.5,4.2c-0.5,0.3-1,0.5-1.5,0.9l0,0c-0.5,0.2-1,0.4-1.5,0.6l0,0
		c-0.3,0.3-0.8,0-1.2,0.3c-0.1,0-0.2,0-0.3,0c-1.1,0.2-2.2,0.2-3.3,0l0,0c-0.4-0.3-0.8,0-1.2-0.3c-0.8-0.3-1.6-0.6-2.4-0.9
		c-0.3-0.2-0.6-0.4-0.9-0.6c-1.8-1.4-3.3-3-3.9-5.3c0-0.2-0.2-0.4-0.3-0.6c-0.3-0.3,0-0.8-0.3-1.2c-0.1-1.6,0-3.2,0.3-4.7
		c0.5-0.6,0.6-1.3,1-1.9c0.9-1.4,1.9-2.7,3.3-3.6c0.9-0.6,1.9-1.2,2.9-1.4c1.6-0.4,3.2-0.7,4.8-0.2c0.5,0.2,1.1,0,1.6,0.4
		c0.2,0.3,0.7,0,0.9,0.3c1.6,0.8,3.1,1.8,4.2,3.2C36.2,18.8,36.4,19.1,36.6,19.3z"/>
	<path class="st9" d="M50.8,62.5c0.2,0.4,0.9,0.7,0.5,1.2c-0.4,0.5-0.9,0.2-1.4,0c-0.5-0.2-1,0.1-1.5,0.1c-11.4,0-22.7,0-34.1,0
		c-2.3,0-4.6,0-7,0c-0.7,0-1.4-0.2-2.1,0.1c-0.2,0.1-0.5,0-0.6-0.2c-0.1-0.2-0.4-0.3-0.6-0.3c-0.1-0.5,0.4-0.6,0.6-0.9
		c0.4-0.6,1-1.1,1.6-1.6c0.7-0.5,1.3-1.2,1.9-1.8c0.9-0.9,1.8-1.9,3-2.6c0.3-0.2,0.6-0.8,0.8,0.1c0,0.1,0.1,0.1,0.2,0.1
		c9.4-0.5,18.7-0.1,28.1-0.2c0.5,0,0.9,0.1,1.3,0.3c0.4,0.2,0.7,0.3,1-0.1c0.2-0.3,0.5-0.2,1-0.1C43,56.4,43,56.2,43,55.9
		c0-0.1,0.1-0.1,0.1-0.2c0.7,0,1,0.6,1.5,1c0.5,0.4,1,0.9,1.5,1.3c1,1,2.1,1.8,3.1,2.8c0.5,0.4,0.9,0.9,1.4,1.2
		C50.8,62.1,50.9,62.2,50.8,62.5z"/>
	<path class="st10" d="M84.3,38.3c1,0.6,1.8,1.3,2.7,2c0.7,0.5,1.4,1.1,2.1,1.6c0.3,0.2,0.7,0.4,0.8,0.9c0.1,0.4,0.6,0.2,0.8,0.5
		c0.1,0.1,0.3,0.1,0.3,0.3c-0.2,0.2-0.5,0.2-0.7,0.2c-0.8-0.3-1.4,0.2-2.1,0.3c-0.3,0.1-0.5,0.3-0.6,0.5c-0.5,0.7-1,1.4-1.8,1.6
		c-0.1,0-0.3,0.1-0.4,0.2c-1,1.2-2.6,1.5-3.7,2.5c-0.9,0.8-2,1.3-2.9,2.1c-0.3,0.2-0.5,0.4-0.9,0.4c-0.6,0.1-1,0.4-1.1,1
		c-0.2,0.7-0.6,1-1.2,1.2c-0.7,0.2-1.4,0.8-2.2,0.8c-0.3,0-0.4,0.3-0.4,0.5c-0.2,0.6-0.7,1-1.3,1.2c-0.7,0.2-1.2,0.7-1.7,1.2
		c-0.8,0.7-1.6,1.5-2.7,1.7c-0.2,0-0.5,0-0.5,0.3c-0.1,0.6-0.5,0.7-0.9,0.9c-0.4,0.1-0.7,0.4-1,0.7c-0.4,0.3-0.7,0.6-1.2,0.8
		c-0.4,0.1-0.6,0.5-0.8,0.7c-0.4,0.4-0.8,0.9-1.5,0.8c-0.5,0-0.8,0.4-1,0.9c-0.3,1-1.4,1.6-2.4,1.4c-1.1-1-1.9-2.3-2.9-3.4
		c-0.6-0.6-1.1-1.3-1.6-1.9c-0.2-0.2-0.4-0.4-0.2-0.8c0.3-0.2,0.6,0,0.8,0.1c-0.2-0.9-0.1-1.1,0.8-1.2c0.5-0.1,0.9-0.4,1.3-0.7
		c0.7-0.6,1.3-1.1,2.2-1.3c0.1,0,0.4-0.1,0.4-0.2c0.4-1,1.6-1,2.2-1.8c0.1-0.1,0.1-0.2,0.2-0.2c1.3-0.4,2-1.6,3-2.5
		c0.5-0.4,1-0.7,1.6-0.8c0.4-0.1,0.7-0.2,1.1-0.3c0.3-0.1,0.5-0.3,0.5-0.7c0-0.5,0.3-0.8,0.7-0.9c1.2-0.4,2.1-1.3,3.1-1.9
		c1.1-0.7,2.1-1.7,3.5-2c0.7-0.2,1.1-0.7,1.5-1.2c0.7-0.8,1.6-1.2,2.5-1.7c0.5-0.2,0.9-0.6,1.2-1.1c0.3-0.6,0.7-1,1.3-1.3
		c0.6-0.3,1.1-0.8,1.6-1.3C83.2,38,83.6,37.9,84.3,38.3z"/>
	<path class="st11" d="M78.7,33.5c0.1,0.1,0.2,0.2,0.3,0.3c0.1,0.2,0,0.3-0.1,0.3C77,35,75.6,36.4,74,37.4c-0.1,0-0.1,0.1-0.2,0.1
		c-0.9,1.2-2.1,1.6-3.4,2.2c-0.6,0.2-1.1,0.7-1.7,1.1c-0.8,0.6-1.4,1.4-2.2,2c-0.2,0.2-0.4,0.3-0.7,0.4c-0.4,0.1-0.6,0.3-0.8,0.7
		c-0.2,0.6-0.6,0.8-1.2,1c-1.4,0.4-2.6,1.3-3.7,2.3c-0.3,0.3-0.7,0.6-1.1,0.8c-0.5,0.2-0.9,0.4-1.1,0.9c-0.1,0.3-0.4,0.4-0.7,0.5
		c-0.4,0.1-0.7,0.2-1,0.5c-1,1.2-2.3,1.8-3.7,2.4c-0.2,0.1-0.4,0.3-0.5,0.5c-0.3,0.4-0.7,0.7-1.2,0.9c-0.5,0.2-0.9,0.3-1,0.9
		c-0.1,0.4-0.4,0.3-0.5,0c-0.1-0.4-0.4-0.5-0.7-0.5c-0.6-0.4-1.1-1-1.5-1.6c-0.8-1-1.7-2-2.5-3c-0.1-0.2-0.4-0.3-0.2-0.5
		c0.6-0.6,1.3-1.2,1.9-1.7c1.1-0.9,2.3-1.7,3.4-2.5c1.3-1,2.6-2,3.9-2.9c1.1-0.7,2-1.6,3-2.3c2.2-1.5,4.2-3.4,6.5-4.8
		c0.6-0.3,1.1-0.8,1.6-1.3c1-0.9,2.3-1.4,3.5-1.8c1.6-0.6,3.2-0.3,4.9-0.3c1,0,1.8,0.3,2.7,0.8c0.3,0.2,0.8,0.3,1.1,0.4
		c0.3,0.2,0.6,0.4,0.9,0.6C78.1,33.2,78.4,33.4,78.7,33.5z"/>
	<path class="st12" d="M57.8,65.5c1.1,0.2,2-0.4,2.2-1.4c0.1-0.6,0.8-1,1.4-0.9c0.8,0.1,0.9-0.6,1.3-1c0.3-0.3,0.5-0.5,0.9-0.6
		c0.3-0.1,0.6-0.3,0.9-0.6c0.4-0.4,0.8-0.7,1.3-0.9c0.4-0.1,0.8-0.1,0.6-0.7C66.4,59.1,66.7,59,67,59c0.6,0.1,1-0.4,1.5-0.7
		c0.8-0.5,1.4-1.2,2.1-1.8c0.2-0.2,0.4-0.3,0.6-0.4c0.8-0.2,1.5-0.6,1.7-1.5c0.1-0.3,0.3-0.5,0.6-0.4c1,0.1,1.7-0.8,2.7-1
		c0.3-0.1,0.4-0.4,0.5-0.8c0.2-0.8,0.6-1.2,1.4-1.2c0.1,0,0.3,0,0.4-0.1c0.8-1,2-1.3,2.9-2.1c0.4-0.4,0.9-1,1.7-1
		c0.2,0,0.3-0.2,0.5-0.3c0.1-0.1,0.2-0.3,0.2-0.3c1.2,0,1.5-1.4,2.7-1.6c0.5-0.1,0.9-0.7,1.2-1.3c0.2-0.4,0.5-0.5,0.9-0.7
		c0.9-0.4,1.8-0.2,2.8-0.2c1,0.7,1.9,1.4,2.7,2.2c0.1,0.1,0.2,0.2,0.4,0.2c0.4,0,0.5,0.3,0.5,0.6c0.1,0.3,0.8,0,0.6,0.6
		c-0.7,0.1-0.8,0.8-1.3,1.2c-0.4,0.4-0.8,0.7-1.4,0.9c-0.6,0.1-0.9,0.5-1.2,1c-0.2,0.6-0.7,0.9-1.3,0.9c-0.5,0-0.8,0.4-1,0.7
		c-0.3,0.4-0.6,0.7-1.1,0.8c-1.1,0.4-1.9,1.1-2.6,2.1c-0.3,0.4-0.7,0.6-1.1,0.6c-0.7,0.1-1.3,0.4-1.7,1c-0.3,0.4-0.6,0.8-1.2,0.8
		c-0.2,0-0.5,0.1-0.6,0.3c-0.5,0.8-1.4,1.3-2.1,1.8c-0.9,0.6-1.7,1.4-2.6,1.8c-0.9,0.4-1.3,0.9-1.8,1.5c-0.1,0.2-0.3,0.3-0.5,0.3
		c-0.9-0.1-1.3,0.5-1.6,1.2c-0.2,0.3-0.3,0.4-0.6,0.5c-1.2,0.3-2.1,1.1-3,1.8c-0.6,0.5-1.1,0.9-1.8,1.2c-0.3,0.2-0.6,0.3-0.8,0.6
		c-0.6,0.8-1.4,1.2-2.3,1.5c-0.1,0-0.2,0.1-0.3,0.1c-0.5,0.8-1.2,0.4-1.9,0.3c-0.8-0.4-1.1-1.2-1.7-1.8c-0.7-0.7-1.3-1.6-1.9-2.3
		C57.8,65.9,57.6,65.7,57.8,65.5z"/>
	<path class="st13" d="M48.5,53.9c0.6-0.1,0.9,0.2,1,0.9c0-1.1,0.9-1.1,1.6-1.4c0.2-0.1,0.4-0.2,0.5-0.3c0.8-1,1.9-1.4,3.1-1.9
		c0.5-0.2,0.8-0.7,1.2-1.1c0.4-0.4,0.8-0.8,1.4-0.8c0.1,0,0.4-0.1,0.4-0.2c0.4-1.3,1.9-1.3,2.6-2.2c0.4-0.5,1-0.9,1.5-1.3
		c0.1-0.1,0.3-0.3,0.4-0.3c0.8,0.1,1.3-0.7,2-0.7c0.3,0,0.4-0.2,0.5-0.5c0.2-0.6,0.5-0.9,1.1-1.1c0.5-0.1,1-0.5,1.2-0.9
		c0.7-1.1,1.9-1.6,2.8-2.4c0.4-0.3,0.9-0.3,1.4-0.5c0.6-0.3,1-0.9,1.8-1c0.1,0,0.1-0.1,0.2-0.1c0.3-1,1.3-1.1,2-1.7
		c0.9-0.9,2.1-1.4,3.2-2.2c0.2-0.2,0.5,0.2,0.6-0.2c0.6,0.3,1,0.8,1.5,1.2c0.6,0.5,1.3,0.9,1.9,1.4c0.7,0.5,1.4,1.1,1.9,1.8
		c-1.1-0.4-1.7,0.5-2.4,1c-0.4,0.3-0.7,0.6-1.2,0.8c-0.5,0.2-0.8,0.6-1,1.1c-0.2,0.5-0.5,0.9-1,1c-1.1,0.4-2.1,1-2.8,1.9
		c-0.6,0.8-1.4,1.1-2.3,1.4c-0.9,0.3-1.7,1-2.5,1.6c-1,0.8-2,1.7-3.3,2.1c-0.4,0.1-0.7,0.4-0.5,0.9c0.2,0.5-0.2,0.6-0.5,0.7
		c-0.6,0.2-1.3,0.3-1.9,0.5c-1,0.4-1.5,1.3-2.3,2c-0.4,0.3-0.7,0.7-1.2,0.8c-0.4,0.1-0.7,0.3-0.9,0.6c-0.1,0.1-0.2,0.3-0.4,0.3
		c-0.7,0.1-1.2,0.4-1.4,1.2c-0.1,0.2-0.6,0.4-1,0.4c-0.7,0-1.1,0.6-1.6,0.9c-0.6,0.4-1,1.1-1.9,0.9c-0.3-0.1-0.5,0.6-0.2,1
		c0.1,0.1,0.3,0.2,0.1,0.3c-0.1,0.1-0.3,0.1-0.4-0.1c-0.2-0.3-0.5-0.3-0.8-0.3c-0.7-0.1-0.8-0.8-1.3-1.1c-0.7-1-1.6-2-2.4-2.9
		C49.2,54.9,48.5,54.6,48.5,53.9z"/>
	<path class="st14" d="M43.1,55.7c0,0.4,0,0.7,0.5,0.9c0.2,0.1,0.3,0.2,0.3,0.4c0,0.1-0.1,0.2-0.2,0.2c-0.2,0-0.3-0.1-0.4-0.3
		c-0.2-0.3-0.5-0.5-0.7,0c-0.3,0.8-0.9,0.5-1.2,0.3c-0.4-0.3-0.9-0.4-1.4-0.4c-8.4,0-16.9,0-25.3,0c-0.7,0-1.4,0.3-2.1,0
		c-0.3-0.1-0.5,0.2-0.7,0.4c-0.1,0.1-0.3,0.1-0.4-0.1c-0.1-0.2,0.1-0.2,0.2-0.2c0.1-0.1,0.2-0.3,0.1-0.4c-0.2-0.2-0.3,0.3-0.6,0.1
		c0.3-0.8,1-1.1,1.5-1.6c0.6-0.7,1.3-1.3,2-1.9c1.8-1.6,3.5-3.3,5.2-4.9c0.9-0.8,1.8-1.7,3.1-2c0,0,0.1-0.1,0.1-0.2
		c0.2-0.3,0.6,0,0.9-0.3c0,0,0.1,0,0.1,0c0.2-0.2,0.5-0.1,0.8-0.3c0.6,0,1.1-0.2,1.6-0.3c1.7-0.1,3.4,0.3,5,1
		c1.9,0.9,3.2,2.4,4.8,3.6c1.1,0.9,2.1,2,3.4,2.7c0.9,0.5,1.5,1.3,2.3,1.9C42.3,54.8,42.9,55.1,43.1,55.7z"/>
	<path class="st15" d="M43.1,55.7c-1.2-1.1-2.5-2-3.6-3.3c0.5-0.2,0.7-0.6,1.1-0.9c1.2-0.8,2.3-1.9,3.7-2.6c0.8,1,1.6,1.9,2.4,2.9
		c0.2,0.2,0.4,0.3,0.4,0.6c-0.9,0.4-1.5,1.1-2.4,1.5c-0.7,0.3-1.1,1-1.5,1.7C43.2,55.7,43.2,55.7,43.1,55.7z"/>
	<path class="st16" d="M37.8,27.6c0.2-1.5,0.4-2.9,0.3-4.4c0.4,0,0.3,0.3,0.3,0.6c0,1,0,2,0,3C38.4,27.2,38.3,27.5,37.8,27.6z"/>
	<path class="st17" d="M4.6,62.5c0,0.4-0.6,0.5-0.6,0.9c-0.7,0.4-1.2,1.2-2,1.5c0.6-0.9,1.5-1.6,2.2-2.3C4.3,62.5,4.5,62.5,4.6,62.5
		z"/>
	<path class="st18" d="M95.3,47.1c0.1-0.4-0.6-0.2-0.6-0.6c0.9-0.1,1.2,0.6,1.7,1c0.1,0.1,0,0.2-0.1,0.3
		C95.9,47.7,95.5,47.6,95.3,47.1z"/>
	<path class="st19" d="M26,35.3c1.1,0,2.2,0,3.3,0C28.8,35.7,26.4,35.7,26,35.3z"/>
	<path class="st20" d="M32.2,34.4c0.3-0.6,0.9-0.8,1.5-0.9C33.4,34.2,32.8,34.3,32.2,34.4z"/>
	<path class="st21" d="M37.2,29.4c-0.1-0.7,0.1-1.3,0.6-1.8C37.8,28.3,37.7,28.9,37.2,29.4z"/>
	<path class="st22" d="M30.7,35c0.4-0.5,0.9-0.6,1.5-0.6C31.8,34.9,31.3,35.1,30.7,35z"/>
	<path class="st23" d="M78.7,33.5c-0.6,0.2-0.7-0.2-0.9-0.6C78.3,32.9,78.6,33.1,78.7,33.5z"/>
	<path class="st24" d="M17.1,26.4c0.5,0.3,0.2,0.8,0.3,1.2C16.8,27.3,17.2,26.8,17.1,26.4z"/>
	<path class="st23" d="M77.8,32.9c-0.5,0-0.7-0.2-0.9-0.6C77.4,32.3,77.7,32.5,77.8,32.9z"/>
	<path class="st19" d="M29.5,35.3c0.3-0.5,0.8-0.2,1.2-0.3C30.4,35.6,29.9,35.2,29.5,35.3z"/>
	<path class="st25" d="M21.5,33.6c0.5-0.1,0.7,0.2,0.9,0.6C22,34.2,21.7,34,21.5,33.6z"/>
	<path class="st19" d="M24.8,35c0.4,0,0.9-0.1,1.2,0.3C25.6,35.2,25.1,35.6,24.8,35z"/>
	<path class="st26" d="M23.9,45.7c-0.2,0.5-0.6,0.2-0.9,0.3C23.2,45.4,23.6,45.8,23.9,45.7z"/>
	<path class="st26" d="M24.8,45.4c-0.1,0.4-0.5,0.2-0.8,0.3C24.2,45.2,24.5,45.4,24.8,45.4z"/>
	<path class="st0" d="M36.9,19.7c0.1-0.2-0.1-0.5,0.2-0.5c0.3,0,0.4,0.4,0.5,0.7C37.4,19.8,37.1,19.7,36.9,19.7
		C36.9,19.7,36.9,19.7,36.9,19.7z"/>
	<path class="st27" d="M36.6,19.3c-0.4-0.1-0.6-0.4-0.6-0.9C36.5,18.6,36.7,18.9,36.6,19.3z"/>
	<path class="st28" d="M31.9,15.2c-0.3-0.1-0.7,0.2-0.9-0.3C31.3,15,31.7,14.7,31.9,15.2z"/>
	<path class="st29" d="M49.8,99.7c-6.4,0-12.8,0-19.3,0c0-5.1,0-10.2,0-15.3c0-1,0.1-1.1,1.1-1.1c0.1,0,0.1,0,0.2,0
		c0.2,0,0.4,0,0.4-0.2c0-0.2-0.2-0.2-0.4-0.2c-0.8,0-1.6-0.1-2.4,0c-1,0.1-1.9-0.5-2.9-0.3c2.3-0.5,4.7,0,7.1-0.7
		c-2-0.1-3.7-0.2-5.5-0.3c0-0.1,0-0.1,0-0.2c7.2,0,14.3,0,21.5,0c0.1,0.4,0.3,0.3,0.6,0.3c0.5,0,1.1,0,1.6,0c1,0,2,0,2.9,0.4
		c-1.3,0.3-2.6,0.2-3.9,0.2c-0.2,0-0.4,0-0.6,0c-0.3,0-0.6,0-0.5,0.3c0,0.3,0.3,0.2,0.5,0.2c1,0,2,0,3,0c0.5,0,0.8,0,0.6,0.7
		c-0.1,0.2-0.1,0.5-0.1,0.8c0,4,0,8,0,12c0,0.5-0.1,1-0.3,1.6c-0.3-0.9-1-0.8-1.7-0.8c-2.1,0-2.1,0-2.1,2.1
		C49.8,99.4,49.8,99.6,49.8,99.7z"/>
	<path class="st29" d="M54,99.7c-0.3,0-0.6,0-0.9,0c0.1-0.3,0.1-0.6,0.4-0.6C53.8,99.1,53.9,99.4,54,99.7z"/>
	<path class="st30" d="M43.4,81.1c-5.1,0-10.3,0-15.4,0c-8.9,0-17.7,0-26.6,0c-0.2,0-0.4,0-0.7,0c-0.6-0.3-0.5-0.8-0.3-1.3
		c0.1-0.5-0.1-1,0.2-1.6c0.2,0.4,0.3,0.7,0.5,0.9c0.3,0,0.2-0.3,0.4-0.4c0.1-0.1,0.3-0.3,0.4-0.1c0.3,0.6,0.7,0.3,1.1,0.3
		c6.7,0,13.4,0,20.1,0c1.5,0,3.1,0.2,4.6,0.1c5.4-0.3,10.7-0.1,16.1-0.1c1.2,0,2.3,0.2,3.5,0.1c6.1-0.3,12.1-0.1,18.2-0.2
		c0.8,0,1.4-0.4,1.6-1.2c0.3-1,0.9-1.7,1.9-2c0.3-0.1,0.7-0.3,0.8-0.6c0.4-0.6,0.8-1,1.6-0.9c0.3,0,0.4-0.3,0.6-0.5
		c0.4-0.6,0.9-1.3,1.8-1.1c0.4,0.1,0.6-0.2,0.8-0.4c1-1.2,2.4-1.9,3.7-2.7c0.1,0,0.2-0.1,0.2-0.1c0.2-0.9,1.2-0.8,1.6-1.5
		c0.1-0.1,0.3-0.1,0.4-0.1c0.4,0,0.8-0.2,0.9-0.5c0.4-1,1.3-1.4,2.2-1.9c0.1-0.1,0.2-0.2,0.4-0.2c1.3-0.2,1.9-1.4,2.8-2.2
		c0.3-0.2,0.5-0.5,0.9-0.5c0.5-0.1,0.9-0.4,1.3-0.8c0.3-0.3,0.7-0.6,1.1-0.7c0.7-0.1,1.1-0.4,1.5-0.9c0.6-0.8,1.7-1.1,2.4-1.8
		c1-1.1,2.6-1.5,3.7-2.5c0.3-0.3,0.7-0.5,0.8-1c0.1-0.3,0.3-0.7,0.7-0.7c0.4,0,0.3,0.4,0.4,0.7c0.6,0.9,0.3,1.9,0.3,2.8
		c0.1,7.6,0,15.1,0,22.7c0,0.4-0.1,0.7-0.3,1c-4.3,0-8.5,0-12.8,0c-7.3,0-14.6,0-21.9,0c-0.3,0-0.6,0-0.9,0C63.8,81,63.5,81,63.2,81
		c-2.6,0-5.2,0-7.8,0c-0.3,0-0.6,0-0.9,0.1c-0.2,0-0.5,0-0.7,0c-1.1-0.2-2.2-0.1-3.2-0.1c-2.1-0.1-4.2,0-6.4,0
		C44,81,43.7,81,43.4,81.1z"/>
	<path class="st31" d="M51.9,58.4c0.4,0.4,0.8,0.8,1.1,1.2c0.6,1,1.5,1.9,2.2,2.8c0.8,1,1.7,2.1,2.5,3.1c0.7,1.1,1.6,2,2.4,3
		c0.5,0.6,0.9,1.1,1.3,1.7c1.1,1.4,2.2,2.8,3.3,4.2c-0.5-0.1-0.8-0.4-1.2-0.7c-1.1-1-2.3-2.1-3.4-3.1c-0.1-0.1-0.3-0.1-0.4-0.2
		c-2.6-2.3-5.2-4.6-7.8-6.9c-0.4-0.3-0.6-0.8-1.2-0.9c-0.6-0.5-1.2-1.1-1.8-1.6c-0.2-0.2-0.3-0.5-0.4-0.8c-0.1-0.3,0-0.5,0.2-0.7
		c0.5-0.3,1-0.7,1.5-1.1C50.9,58,51.4,57.9,51.9,58.4z"/>
	<path class="st32" d="M0.5,79.8c0,0.5,0,0.9,0.3,1.3c-0.2,0-0.4,0-0.6,0C0.3,80.7-0.1,80.1,0.5,79.8z"/>
	<path class="st32" d="M54.5,81.1c0.2-0.3,0.6-0.3,0.9-0.3c2.6,0,5.2,0,7.8,0c0.3,0,0.6,0,0.8,0.3C60.9,81.1,57.7,81.1,54.5,81.1z"
		/>
	<path class="st32" d="M43.4,81.1c0.1-0.3,0.4-0.3,0.7-0.3c2.1,0,4.3,0,6.4,0c0.9,0,1.8,0.2,2.8,0.1c0.1,0,0.3,0,0.5,0.2
		C50.4,81.1,46.9,81.1,43.4,81.1z"/>
	<path class="st33" d="M51.9,58.4c-1-0.4-1.6,0.4-2.4,0.8c-0.9,0.4-0.6,1.1-0.4,1.7C48,59.9,47,59,46,58.1c-0.5-0.8-0.4-1,0.3-1.5
		c0.6-0.4,1.1-0.8,1.5-1.5c0.3-0.6,0.6-0.6,1.1-0.2c0.2,0.2,0.4,0.3,0.6,0.5C50.4,56.3,51.2,57.3,51.9,58.4z"/>
	<path class="st34" d="M49.5,55.4c-0.3,0-0.6-0.1-0.8-0.4c-0.3-0.6-0.7-0.3-0.8,0.1c-0.2,0.7-0.8,1.2-1.4,1.5
		c-0.7,0.3-0.9,0.8-0.6,1.5c-1-0.7-1.8-1.5-2.7-2.4c0-1,0.8-1.6,1.5-2c0.4-0.2,0.8-0.4,1.1-0.8c0.3-0.4,0.7-0.5,1.2-0.5
		c0.4,0.5,0.9,1,1.3,1.5C48.8,54.4,49.3,54.8,49.5,55.4z"/>
</g>
</svg>
