<?xml version="1.0" encoding="utf-8"?>
<!-- Generator: Adobe Illustrator 23.0.5, SVG Export Plug-In . SVG Version: 6.00 Build 0)  -->
<svg version="1.1" id="Capa_1" xmlns="http://www.w3.org/2000/svg" xmlns:xlink="http://www.w3.org/1999/xlink" x="0px" y="0px"
	 viewBox="0 0 100 100" style="enable-background:new 0 0 100 100;" xml:space="preserve">
<style type="text/css">
	.st0{fill:#BA8E7B;}
	.st1{fill:#EDE9E7;}
	.st2{fill:#EF6562;}
	.st3{fill:#B1B1B1;}
	.st4{fill:#545554;}
	.st5{fill:#696769;}
	.st6{fill:#8D8C8D;}
</style>
<path class="st0" d="M88.6,100H12c-6.6,0-12-5.4-12-12V12C0,5.4,5.4,0,12,0h76.6c6.6,0,12,5.4,12,12v76
	C100.6,94.6,95.2,100,88.6,100z"/>
<g>
	<path class="st1" d="M89.3,38.4c0,17.5,0,34.9,0,52.4c-0.3,0-0.7,0-1,0c-25.3,0-50.6,0-76,0c-0.3,0-0.7,0-1,0c0-17.5,0-35,0-52.6
		c0.1-0.1,0.3-0.2,0.4-0.3C23.5,29.7,35.2,21.5,47,13.3c2.4-1.7,4.2-1.7,6.6-0.1c10,7,19.9,13.9,29.9,20.9
		C85.4,35.5,87.5,36.8,89.3,38.4z"/>
	<path class="st2" d="M89.3,38.4c-1.8-1.6-3.9-2.9-5.9-4.2c-9.9-7-19.9-13.9-29.9-20.9c-2.3-1.6-4.2-1.6-6.6,0.1
		c-11.7,8.2-23.5,16.4-35.3,24.6c-0.1,0.1-0.3,0.2-0.4,0.3c-0.8,0.6-1.5,1.1-2.3,1.7C6.7,41.4,4,41,2.5,39c-1.5-2-1-4.6,1.2-6.2
		c4.6-3.2,9.1-6.4,13.7-9.5c9.9-6.9,19.8-13.8,29.7-20.7c2.4-1.6,4.2-1.6,6.6,0.1C61,7.7,68.3,12.8,75.7,18c0.3,0.2,0.6,0.4,0.9,0.5
		c2.6,2,5.3,3.9,8.1,5.6c2.5,1.9,5.1,3.6,7.7,5.5c1.6,1.2,3.3,2.3,4.9,3.5c1.6,1.2,2.1,3.2,1.4,5c-0.7,1.8-2.5,2.9-4.5,2.7
		c-0.9-0.1-1.7-0.4-2.5-0.9C90.9,39.3,90.2,38.8,89.3,38.4z"/>
	<path class="st3" d="M11.3,90.8c0.3,0,0.7,0,1,0c25.3,0,50.6,0,76,0c0.3,0,0.7,0,1,0c0.1,0,0.1,0,0.2,0c3.6,0.1,4.2,0.7,4.2,4.2
		c0,0.7,0.1,1.4-0.2,2.1c-0.4,1-1.1,1.6-2.3,1.6c-0.3,0-0.7,0-1,0c-26.6,0-53.1,0-79.7,0c-2.7,0-3.6-0.8-3.6-3.4c0-0.5,0-1.1,0-1.6
		c0-1.8,1.1-2.8,3-2.9C10.4,90.8,10.8,90.8,11.3,90.8z"/>
	<path class="st4" d="M84.7,24.1c-2.8-1.8-5.5-3.7-8.1-5.6c0-1.8,0-3.6,0-5.4c0.1,0,0.2,0,0.2,0c2.5,0,5,0,7.5,0c0.1,0,0.2,0,0.4,0
		C84.7,16.7,84.7,20.4,84.7,24.1z"/>
	<path class="st5" d="M84.7,13.1c-0.1,0-0.2,0-0.4,0c-0.3-0.3-0.6-0.2-1-0.2c-1.8,0-3.6,0-5.4,0c-0.4,0-0.8-0.1-1.1,0.2
		c-0.1,0-0.2,0-0.2,0c-2-0.1-2.2,0.4-2.1-2.1c0-2.6-0.3-2.4,2.5-2.4c2.8,0,5.6,0,8.4,0c1.2,0,1.4,0.1,1.4,1.3c0,0.6,0,1.3,0,1.9
		c0,1.2-0.1,1.3-1.4,1.3C85.2,13.1,84.9,13.1,84.7,13.1z"/>
	<path class="st6" d="M76.8,13.1c0.3-0.3,0.7-0.2,1.1-0.2c1.8,0,3.6,0,5.4,0c0.3,0,0.7-0.1,1,0.2C81.8,13.1,79.3,13.1,76.8,13.1z"/>
	<path class="st0" d="M58.9,90.8H39.2c-0.6,0-1.1-0.5-1.1-1.1v-23c0-0.6,0.5-1.1,1.1-1.1h19.6c0.6,0,1.1,0.5,1.1,1.1v23
		C60,90.3,59.5,90.8,58.9,90.8z"/>
	<path class="st0" d="M39.2,60.4H23.4c-1.7,0-3-1.4-3-3V38.2c0-1.7,1.4-3,3-3h15.8c1.7,0,3,1.4,3,3v19.2
		C42.2,59,40.8,60.4,39.2,60.4z"/>
	<path class="st0" d="M75.5,60.4H59.7c-1.7,0-3-1.4-3-3V38.2c0-1.7,1.4-3,3-3h15.8c1.7,0,3,1.4,3,3v19.2
		C78.5,59,77.1,60.4,75.5,60.4z"/>
</g>
</svg>
