<?xml version="1.0" encoding="utf-8"?>
<!-- Generator: Adobe Illustrator 23.0.5, SVG Export Plug-In . SVG Version: 6.00 Build 0)  -->
<svg version="1.1" id="Capa_1" xmlns="http://www.w3.org/2000/svg" xmlns:xlink="http://www.w3.org/1999/xlink" x="0px" y="0px"
	 viewBox="0 0 100 100" style="enable-background:new 0 0 100 100;" xml:space="preserve">
<style type="text/css">
	.st0{fill:#FFFFFF;}
</style>
<g>
	<g>
		<path class="st0" d="M55.3,100.2c-13.7,0-27.3,0-41,0c0.1-0.1,0.1-0.2,0.2-0.3c6.6-6.4,13.2-12.9,19.8-19.3
			c0.1-0.1,0.3-0.2,0.7-0.6c2.3,2.3,4.5,4.6,6.8,6.8c1.1-10.5,2.3-21,3.5-31.7c-10.7,1.2-21.2,2.3-32,3.5c2.6,2.4,5,4.7,7.6,7.1
			c-0.3,0.2-0.6,0.4-0.8,0.6c-5.3,5.3-10.7,10.7-16,16c-1.2,1.2-2.5,2.5-3.8,3.7c0-13.7,0-27.3,0-41c3.3,0,6.6,0,10,0
			c0-11.7,0-23.3,0-35c11.7,0,23.3,0,34.9,0c0-3.4,0-6.7,0-10c13.7,0,27.3,0,41,0c-0.1,0.1-0.1,0.2-0.2,0.3
			c-6.6,6.4-13.2,12.9-19.8,19.3c-0.1,0.1-0.3,0.2-0.7,0.6c-2.2-2.3-4.4-4.6-6.7-7c-1.2,10.6-2.3,21.1-3.5,31.8
			c10.7-1.2,21.2-2.3,32-3.5c-2.6-2.4-5-4.7-7.6-7.1c0.3-0.2,0.6-0.4,0.8-0.6c5.3-5.3,10.7-10.7,16-16c1.2-1.2,2.5-2.5,3.8-3.7
			c0,13.7,0,27.3,0,41c-3.3,0-6.6,0-10,0c0,11.7,0,23.3,0,35c-11.7,0-23.3,0-34.9,0C55.3,93.6,55.3,96.9,55.3,100.2z"/>
		<path d="M100.2,14.3c-1.3,1.2-2.5,2.4-3.8,3.7c-5.3,5.3-10.7,10.7-16,16c-0.2,0.2-0.5,0.4-0.8,0.6c2.6,2.4,5,4.7,7.6,7.1
			c-10.8,1.2-21.3,2.3-32,3.5c1.2-10.7,2.3-21.2,3.5-31.8c2.3,2.4,4.5,4.7,6.7,7c0.4-0.4,0.6-0.5,0.7-0.6
			c6.6-6.4,13.2-12.9,19.8-19.3c0.1-0.1,0.2-0.2,0.2-0.3c0.1,0,0.1,0,0.2,0c0.1,0.2,0.2,0.4,0.4,0.5C91,5,95.4,9.4,99.7,13.7
			c0.2,0.2,0.3,0.3,0.5,0.4C100.2,14.1,100.2,14.2,100.2,14.3z"/>
		<path d="M0.2,86.1c1.3-1.2,2.5-2.4,3.8-3.7c5.3-5.3,10.7-10.7,16-16c0.2-0.2,0.5-0.4,0.8-0.6c-2.6-2.4-5-4.7-7.6-7.1
			c10.8-1.2,21.3-2.3,32-3.5c-1.2,10.7-2.3,21.2-3.5,31.7c-2.2-2.3-4.5-4.5-6.8-6.8c-0.4,0.3-0.6,0.4-0.7,0.6
			C27.7,87,21.1,93.5,14.5,99.9c-0.1,0.1-0.2,0.2-0.2,0.3c-0.1,0-0.1,0-0.2,0c-0.1-0.2-0.2-0.4-0.4-0.5C9.4,95.4,5,91,0.7,86.7
			c-0.2-0.2-0.3-0.3-0.5-0.4C0.2,86.3,0.2,86.2,0.2,86.1z"/>
		<path d="M45.1,0.2c0,3.3,0,6.6,0,10c-11.6,0-23.2,0-34.9,0c0,11.7,0,23.3,0,35c-3.4,0-6.7,0-10,0c0-15,0-29.9,0-44.9
			C15.2,0.2,30.1,0.2,45.1,0.2z"/>
		<path d="M55.3,100.2c0-3.3,0-6.6,0-10c11.6,0,23.2,0,34.9,0c0-11.7,0-23.3,0-35c3.4,0,6.7,0,10,0c0,15,0,29.9,0,44.9
			C85.2,100.2,70.2,100.2,55.3,100.2z"/>
		<path class="st0" d="M100.2,14.1c-0.2-0.1-0.4-0.2-0.5-0.4C95.4,9.4,91,5,86.7,0.7c-0.2-0.2-0.3-0.3-0.4-0.5c4.6,0,9.2,0,13.9,0
			C100.2,4.8,100.2,9.4,100.2,14.1z"/>
		<path class="st0" d="M0.2,86.3c0.2,0.1,0.4,0.2,0.5,0.4C5,91,9.4,95.4,13.7,99.7c0.2,0.2,0.3,0.3,0.4,0.5c-4.6,0-9.2,0-13.9,0
			C0.2,95.6,0.2,91,0.2,86.3z"/>
	</g>
</g>
</svg>
