<?xml version="1.0" encoding="utf-8"?>
<!-- Generator: Adobe Illustrator 23.0.5, SVG Export Plug-In . SVG Version: 6.00 Build 0)  -->
<svg version="1.1" id="Capa_1" xmlns="http://www.w3.org/2000/svg" xmlns:xlink="http://www.w3.org/1999/xlink" x="0px" y="0px"
	 viewBox="0 0 100 100" style="enable-background:new 0 0 100 100;" xml:space="preserve">
<style type="text/css">
	.st0{fill:#2AA71B;}
	.st1{fill:#FCFDFC;}
</style>
<path class="st0" d="M88,99H12C5.4,99,0,93.6,0,87V13C0,6.4,5.4,1,12,1h76c6.6,0,12,5.4,12,12v74C100,93.6,94.6,99,88,99z"/>
<rect x="6" y="7" class="st0" width="87" height="87"/>
<g>
	<title>whatsapp</title>
	<path class="st1" d="M80.8,49.5c0.1,15.4-11,28.4-25.9,31c-6.2,1-12.5,0.3-18.2-2.4c-0.5-0.3-1-0.3-1.6-0.2l-14.4,3.4
		c-1.6,0.3-2.3-0.3-1.9-1.7c1-4.9,2-9.7,3-14.5c0.2-0.6,0.1-1.3-0.3-1.9c-8.9-18.7,3-41.1,23.5-43.9c17.1-2.4,32.5,8.9,35.2,25.8
		C80.7,46.4,80.8,48,80.8,49.5z M27.1,72.8c2.9-0.7,5.6-1.3,8.2-2c1-0.3,1.9-0.2,2.8,0.3c4.7,2.5,9.7,3.5,15,2.8
		C66.4,72.1,75.5,60.2,74,46.8c-1.7-13.3-14.3-23-27.7-21c-16.4,2.4-25.7,19.9-18.4,34.7c1,1.8,1.2,3.5,0.7,5.5
		C28,67.9,27.6,70.4,27.1,72.8z"/>
	<path class="st0" d="M27.1,72.8c0.5-2.4,0.9-4.7,1.5-6.9c0.6-2.2,0.3-3.6-0.7-5.5c-7.3-14.9,2-32.4,18.4-34.7
		c13.4-2,25.9,7.6,27.6,21C75.5,60.1,66.3,72,53,73.8c-5.3,0.7-10.3-0.3-15-2.8c-0.9-0.5-1.8-0.6-2.8-0.3
		C32.7,71.6,30,72.1,27.1,72.8z M57.8,65c1,0,1.8-0.1,2.7-0.3c2.6-0.6,4.1-2.5,5.5-4.6c1-1.5,0.3-3-1.4-3.5
		c-1.2-0.4-2.5-0.8-3.8-1.1c-3-0.8-3-1.3-5.6,1.4c-0.9,1-1.7,1-3,0.4c-1-0.5-2-1.1-2.9-1.8c-2.4-2-4.9-4-6.8-6.6
		c-0.9-1.2-0.8-2,0.1-3.2c0.4-0.5,0.8-1,1.1-1.5c0.4-0.6,0.6-1.4,0.3-2c-0.9-2-1.7-4.1-2.7-6.1c-0.5-1.1-2-1.6-3-0.9
		c-2.3,1.7-4.3,3.8-4.4,7c-0.2,3.1,0.7,5.4,2.1,7.7c3.4,5.7,8.1,9.9,13.8,13C52.5,64.2,55.1,64.9,57.8,65z"/>
	<path class="st1" d="M57.8,65c-2.7-0.1-5.4-0.8-7.7-2.2c-5.7-3.1-10.4-7.4-13.8-13c-1.4-2.3-2.2-5-2.1-7.7c0.2-2.8,2.1-5.2,4.4-7
		c1-0.7,2.4-0.3,3,0.9c1,2,1.8,4.1,2.7,6.1c0.3,0.7,0.2,1.5-0.3,2c-0.3,0.5-0.7,1-1.1,1.5c-0.9,1.2-1,2-0.1,3.2
		c1.9,2.6,4.3,4.6,6.8,6.6c0.9,0.7,1.8,1.3,2.9,1.8c1.1,0.6,2,0.4,3-0.4c2.5-2.7,2.5-2.2,5.6-1.4c1.3,0.3,2.6,0.7,3.8,1.1
		C66.3,57,67,58.5,66,60c-1.4,2.1-2.9,4-5.5,4.6C59.6,64.9,58.7,65,57.8,65z"/>
</g>
</svg>
